  0
SECTION
  2
HEADER
  9
$ACADVER
  1
AC1021
  9
$ACADMAINTVER
 70
25
  9
$DWGCODEPAGE
  3
ANSI_1252
  9
$INSBASE
 10
0.0
 20
0.0
 30
0.0
  9
$EXTMIN
 10
1e+20
 20
1e+20
 30
1e+20
  9
$EXTMAX
 10
-1e+20
 20
-1e+20
 30
-1e+20
  9
$LIMMIN
 10
0.0
 20
0.0
  9
$LIMMAX
 10
420.0
 20
297.0
  9
$ORTHOMODE
 70
0
  9
$REGENMODE
 70
1
  9
$FILLMODE
 70
1
  9
$QTEXTMODE
 70
0
  9
$MIRRTEXT
 70
1
  9
$LTSCALE
 40
1.0
  9
$ATTMODE
 70
1
  9
$TEXTSIZE
 40
0.2
  9
$TRACEWID
 40
0.05
  9
$TEXTSTYLE
  7
STANDARD
  9
$CLAYER
  8
4_ANYTOOL_CUTTHROUGH_OUTSI
  9
$CELTYPE
  6
BYLAYER
  9
$CECOLOR
 62
256
  9
$CELTSCALE
 40
1.0
  9
$DISPSILH
 70
0
  9
$DIMSCALE
 40
1.0
  9
$DIMASZ
 40
0.18
  9
$DIMEXO
 40
0.0625
  9
$DIMDLI
 40
0.38
  9
$DIMRND
 40
0.0
  9
$DIMDLE
 40
0.0
  9
$DIMEXE
 40
0.18
  9
$DIMTP
 40
0.0
  9
$DIMTM
 40
0.0
  9
$DIMTXT
 40
0.18
  9
$DIMCEN
 40
0.09
  9
$DIMTSZ
 40
0.0
  9
$DIMTOL
 70
0
  9
$DIMLIM
 70
0
  9
$DIMTIH
 70
1
  9
$DIMTOH
 70
1
  9
$DIMSE1
 70
0
  9
$DIMSE2
 70
0
  9
$DIMTAD
 70
0
  9
$DIMZIN
 70
0
  9
$DIMBLK
  1

  9
$DIMASO
 70
1
  9
$DIMSHO
 70
1
  9
$DIMPOST
  1

  9
$DIMAPOST
  1

  9
$DIMALT
 70
0
  9
$DIMALTD
 70
2
  9
$DIMALTF
 40
25.4
  9
$DIMLFAC
 40
1.0
  9
$DIMTOFL
 70
0
  9
$DIMTVP
 40
0.0
  9
$DIMTIX
 70
0
  9
$DIMSOXD
 70
0
  9
$DIMSAH
 70
0
  9
$DIMBLK1
  1

  9
$DIMBLK2
  1

  9
$DIMSTYLE
  2
STANDARD_ACAD
  9
$DIMCLRD
 70
0
  9
$DIMCLRE
 70
0
  9
$DIMCLRT
 70
0
  9
$DIMTFAC
 40
1.0
  9
$DIMGAP
 40
0.09
  9
$DIMJUST
 70
0
  9
$DIMSD1
 70
0
  9
$DIMSD2
 70
0
  9
$DIMTOLJ
 70
1
  9
$DIMTZIN
 70
0
  9
$DIMALTZ
 70
0
  9
$DIMALTTZ
 70
0
  9
$DIMUPT
 70
0
  9
$DIMDEC
 70
4
  9
$DIMTDEC
 70
4
  9
$DIMALTU
 70
2
  9
$DIMALTTD
 70
2
  9
$DIMTXSTY
  7
standard
  9
$DIMAUNIT
 70
0
  9
$DIMADEC
 70
0
  9
$DIMALTRND
 40
0.0
  9
$DIMAZIN
 70
0
  9
$DIMDSEP
 70
44
  9
$DIMATFIT
 70
3
  9
$DIMFRAC
 70
0
  9
$DIMLDRBLK
  1
STANDARD
  9
$DIMLUNIT
 70
2
  9
$DIMLWD
 70
-2
  9
$DIMLWE
 70
-2
  9
$DIMTMOVE
 70
0
  9
$DIMFXL
 40
1.0
  9
$DIMFXLON
 70
0
  9
$DIMJOGANG
 40
0.7854
  9
$DIMTFILL
 70
0
  9
$DIMTFILLCLR
 70
0
  9
$DIMARCSYM
 70
0
  9
$DIMLTYPE
  6

  9
$DIMLTEX1
  6

  9
$DIMLTEX2
  6

  9
$LUNITS
 70
2
  9
$LUPREC
 70
3
  9
$SKETCHINC
 40
0.1
  9
$FILLETRAD
 40
0.0
  9
$AUNITS
 70
0
  9
$AUPREC
 70
0
  9
$MENU
  1
.
  9
$ELEVATION
 40
0.0
  9
$PELEVATION
 40
0.0
  9
$THICKNESS
 40
0.0
  9
$LIMCHECK
 70
0
  9
$CHAMFERA
 40
0.0
  9
$CHAMFERB
 40
0.0
  9
$CHAMFERC
 40
0.0
  9
$CHAMFERD
 40
0.0
  9
$SKPOLY
 70
0
  9
$TDCREATE
 40
2460499.0420023147
  9
$TDUPDATE
 40
2460499.0420023147
  9
$USRTIMER
 70
1
  9
$ANGBASE
 50
0.0
  9
$ANGDIR
 70
0
  9
$PDMODE
 70
0
  9
$PDSIZE
 40
0.0
  9
$PLINEWID
 40
0.0
  9
$SPLFRAME
 70
0
  9
$SPLINETYPE
 70
6
  9
$SPLINESEGS
 70
8
  9
$HANDSEED
  5
20017
  9
$SURFTAB1
 70
6
  9
$SURFTAB2
 70
6
  9
$SURFTYPE
 70
6
  9
$SURFU
 70
6
  9
$SURFV
 70
6
  9
$UCSBASE
  2

  9
$UCSNAME
  2

  9
$UCSORG
 10
0.0
 20
0.0
 30
0.0
  9
$UCSXDIR
 10
1.0
 20
0.0
 30
0.0
  9
$UCSYDIR
 10
0.0
 20
1.0
 30
0.0
  9
$UCSORTHOREF
  2

  9
$UCSORTHOVIEW
 70
0
  9
$UCSORGTOP
 10
0.0
 20
0.0
 30
0.0
  9
$UCSORGBOTTOM
 10
0.0
 20
0.0
 30
0.0
  9
$UCSORGLEFT
 10
0.0
 20
0.0
 30
0.0
  9
$UCSORGRIGHT
 10
0.0
 20
0.0
 30
0.0
  9
$UCSORGFRONT
 10
0.0
 20
0.0
 30
0.0
  9
$UCSORGBACK
 10
0.0
 20
0.0
 30
0.0
  9
$PUCSBASE
  2

  9
$PUCSNAME
  2

  9
$PUCSORG
 10
0.0
 20
0.0
 30
0.0
  9
$PUCSXDIR
 10
1.0
 20
0.0
 30
0.0
  9
$PUCSYDIR
 10
0.0
 20
1.0
 30
0.0
  9
$PUCSORTHOREF
  2

  9
$PUCSORTHOVIEW
 70
0
  9
$PUCSORGTOP
 10
0.0
 20
0.0
 30
0.0
  9
$PUCSORGBOTTOM
 10
0.0
 20
0.0
 30
0.0
  9
$PUCSORGLEFT
 10
0.0
 20
0.0
 30
0.0
  9
$PUCSORGRIGHT
 10
0.0
 20
0.0
 30
0.0
  9
$PUCSORGFRONT
 10
0.0
 20
0.0
 30
0.0
  9
$PUCSORGBACK
 10
0.0
 20
0.0
 30
0.0
  9
$USERI1
 70
0
  9
$USERI2
 70
0
  9
$USERI3
 70
0
  9
$USERI4
 70
0
  9
$USERI5
 70
0
  9
$USERR1
 40
0.0
  9
$USERR2
 40
0.0
  9
$USERR3
 40
0.0
  9
$USERR4
 40
0.0
  9
$USERR5
 40
0.0
  9
$WORLDVIEW
 70
1
  9
$SHADEDGE
 70
3
  9
$SHADEDIF
 70
70
  9
$TILEMODE
 70
1
  9
$MAXACTVP
 70
64
  9
$PINSBASE
 10
0.0
 20
0.0
 30
0.0
  9
$PLIMCHECK
 70
0
  9
$PEXTMIN
 10
1e+20
 20
1e+20
 30
1e+20
  9
$PEXTMAX
 10
-1e+20
 20
-1e+20
 30
-1e+20
  9
$PLIMMIN
 10
0.0
 20
0.0
  9
$PLIMMAX
 10
420.0
 20
297.0
  9
$UNITMODE
 70
0
  9
$VISRETAIN
 70
1
  9
$PLINEGEN
 70
0
  9
$PSLTSCALE
 70
1
  9
$TREEDEPTH
 70
3020
  9
$CMLSTYLE
  2
STANDARD
  9
$CMLJUST
 70
0
  9
$CMLSCALE
 40
1.0
  9
$PROXYGRAPHICS
 70
1
  9
$MEASUREMENT
 70
1
  9
$CELWEIGHT
370
-1
  9
$ENDCAPS
280
0
  9
$JOINSTYLE
280
0
  9
$LWDISPLAY
290
0
  9
$INSUNITS
 70
4
  9
$HYPERLINKBASE
  1

  9
$STYLESHEET
  1

  9
$XEDIT
290
1
  9
$CEPSNTYPE
380
0
  9
$PSTYLEMODE
290
1
  9
$FINGERPRINTGUID
  2
{A15C7F20-900A-4E2F-A770-8A2BF1D8F598}
  9
$VERSIONGUID
  2
{25742D5C-2939-45EC-B997-0D833173011E}
  9
$EXTNAMES
290
1
  9
$PSVPSCALE
 40
1.0
  9
$OLESTARTUP
290
0
  9
$SORTENTS
280
127
  9
$INDEXCTL
280
0
  9
$HIDETEXT
280
1
  9
$XCLIPFRAME
290
0
  9
$HALOGAP
280
0
  9
$OBSCOLOR
 70
257
  9
$OBSLTYPE
280
0
  9
$INTERSECTIONDISPLAY
280
0
  9
$INTERSECTIONCOLOR
 70
257
  9
$DIMASSOC
280
1
  9
$PROJECTNAME
  1

  9
$CAMERADISPLAY
290
0
  9
$LENSLENGTH
 40
50.0
  9
$CAMERAHEIGHT
 40
0.0
  9
$STEPSPERSEC
 40
2.0
  9
$STEPSIZE
 40
50.0
  9
$3DDWFPREC
 40
2.0
  9
$PSOLWIDTH
 40
5.0
  9
$PSOLHEIGHT
 40
80.0
  9
$LOFTANG1
 40
1.570796326794897
  9
$LOFTANG2
 40
1.570796326794897
  9
$LOFTMAG1
 40
0.0
  9
$LOFTMAG2
 40
0.0
  9
$LOFTPARAM
 70
7
  9
$LOFTNORMALS
280
1
  9
$LATITUDE
 40
1.0
  9
$LONGITUDE
 40
1.0
  9
$NORTHDIRECTION
 40
0.0
  9
$TIMEZONE
 70
-8000
  9
$LIGHTGLYPHDISPLAY
280
1
  9
$TILEMODELIGHTSYNCH
280
1
  9
$CMATERIAL
347
2000E
  9
$SOLIDHIST
280
1
  9
$SHOWHIST
280
1
  9
$DWFFRAME
280
2
  9
$DGNFRAME
280
0
  9
$REALWORLDSCALE
290
1
  9
$INTERFERECOLOR
 62
1
  9
$CSHADOW
280
0
  9
$SHADOWPLANELOCATION
 40
0.0
  0
ENDSEC
  0
SECTION
  2
CLASSES
  0
CLASS
  1
ACDBDICTIONARYWDFLT
  2
AcDbDictionaryWithDefault
  3
ObjectDBX Classes
 90
0
 91
0
280
0
281
0
  0
CLASS
  1
SUN
  2
AcDbSun
  3
SCENEOE
 90
1153
 91
0
280
0
281
0
  0
CLASS
  1
VISUALSTYLE
  2
AcDbVisualStyle
  3
ObjectDBX Classes
 90
4095
 91
0
280
0
281
0
  0
CLASS
  1
MATERIAL
  2
AcDbMaterial
  3
ObjectDBX Classes
 90
1153
 91
0
280
0
281
0
  0
CLASS
  1
SCALE
  2
AcDbScale
  3
ObjectDBX Classes
 90
1153
 91
0
280
0
281
0
  0
CLASS
  1
TABLESTYLE
  2
AcDbTableStyle
  3
ObjectDBX Classes
 90
4095
 91
0
280
0
281
0
  0
CLASS
  1
MLEADERSTYLE
  2
AcDbMLeaderStyle
  3
ACDB_MLEADERSTYLE_CLASS
 90
4095
 91
0
280
0
281
0
  0
CLASS
  1
DICTIONARYVAR
  2
AcDbDictionaryVar
  3
ObjectDBX Classes
 90
0
 91
0
280
0
281
0
  0
CLASS
  1
CELLSTYLEMAP
  2
AcDbCellStyleMap
  3
ObjectDBX Classes
 90
1152
 91
0
280
0
281
0
  0
CLASS
  1
MENTALRAYRENDERSETTINGS
  2
AcDbMentalRayRenderSettings
  3
SCENEOE
 90
1024
 91
0
280
0
281
0
  0
CLASS
  1
ACDBDETAILVIEWSTYLE
  2
AcDbDetailViewStyle
  3
ObjectDBX Classes
 90
1025
 91
0
280
0
281
0
  0
CLASS
  1
ACDBSECTIONVIEWSTYLE
  2
AcDbSectionViewStyle
  3
ObjectDBX Classes
 90
1025
 91
0
280
0
281
0
  0
CLASS
  1
RASTERVARIABLES
  2
AcDbRasterVariables
  3
ISM
 90
0
 91
0
280
0
281
0
  0
CLASS
  1
ACDBPLACEHOLDER
  2
AcDbPlaceHolder
  3
ObjectDBX Classes
 90
0
 91
0
280
0
281
0
  0
CLASS
  1
LAYOUT
  2
AcDbLayout
  3
ObjectDBX Classes
 90
0
 91
0
280
0
281
0
  0
ENDSEC
  0
SECTION
  2
TABLES
  0
TABLE
  2
VPORT
  5
8
330
0
100
AcDbSymbolTable
 70
1
  0
VPORT
  5
31
330
8
100
AcDbSymbolTableRecord
100
AcDbViewportTableRecord
  2
*ACTIVE
 70
0
 10
0.0
 20
0.0
 11
1.0
 21
1.0
 12
2370.03782184613
 22
860.5281047550243
 13
0.0
 23
0.0
 14
10.0
 24
10.0
 15
1.0
 25
1.0
 16
0.0
 26
0.0
 36
1.0
 17
0.0
 27
0.0
 37
0.0
 40
4962.37873742064
 41
2.054913294797688
 42
50.0
 43
0.0
 44
0.0
 50
0.0
 51
0.0
 71
0
 72
100
 73
1
 74
3
 75
0
 76
1
 77
0
 78
0
281
0
 65
1
110
0.0
120
0.0
130
0.0
111
1.0
121
0.0
131
0.0
112
0.0
122
1.0
132
0.0
 79
0
146
0.0
 60
3
 61
5
348
10020
292
1
282
1
141
0.0
142
0.0
 63
250
421
3358443
  0
ENDTAB
  0
TABLE
  2
LTYPE
  5
5
330
0
100
AcDbSymbolTable
 70
27
  0
LTYPE
  5
14
330
5
100
AcDbSymbolTableRecord
100
AcDbLinetypeTableRecord
  2
ByBlock
 70
0
  3

 72
65
 73
0
 40
0.0
  0
LTYPE
  5
15
330
5
100
AcDbSymbolTableRecord
100
AcDbLinetypeTableRecord
  2
ByLayer
 70
0
  3

 72
65
 73
0
 40
0.0
  0
LTYPE
  5
16
330
5
100
AcDbSymbolTableRecord
100
AcDbLinetypeTableRecord
  2
Continuous
 70
0
  3
Solid line
 72
65
 73
0
 40
0.0
  0
LTYPE
  5
32
330
5
100
AcDbSymbolTableRecord
100
AcDbLinetypeTableRecord
  2
DOT
 70
0
  3
Dot . . . . . . . . . . . . . . . . . . . . . .
 72
65
 73
2
 40
6.35
 49
0.0
 74
0
 49
-6.35
 74
0
  0
LTYPE
  5
33
330
5
100
AcDbSymbolTableRecord
100
AcDbLinetypeTableRecord
  2
DOTTINY
 70
0
  3
Dot (.15x) .....................................
 72
65
 73
2
 40
0.9525
 49
0.0
 74
0
 49
-0.9525
 74
0
  0
LTYPE
  5
34
330
5
100
AcDbSymbolTableRecord
100
AcDbLinetypeTableRecord
  2
DOT2
 70
0
  3
Dot (.5x) .....................................
 72
65
 73
2
 40
3.175
 49
0.0
 74
0
 49
-3.175
 74
0
  0
LTYPE
  5
35
330
5
100
AcDbSymbolTableRecord
100
AcDbLinetypeTableRecord
  2
DOTX2
 70
0
  3
Dot (2x) .  .  .  .  .  .  .  .  .  .  .  .  .
 72
65
 73
2
 40
12.7
 49
0.0
 74
0
 49
-12.7
 74
0
  0
LTYPE
  5
36
330
5
100
AcDbSymbolTableRecord
100
AcDbLinetypeTableRecord
  2
DASHED
 70
0
  3
Dashed _ _ _ _ _ _ _ _ _ _ _ _ _ _ _ _ _
 72
65
 73
2
 40
19.05
 49
12.7
 74
0
 49
-6.35
 74
0
  0
LTYPE
  5
37
330
5
100
AcDbSymbolTableRecord
100
AcDbLinetypeTableRecord
  2
DASHEDTINY
 70
0
  3
Dashed (.15x) _ _ _ _ _ _ _ _ _ _ _ _ _ _ _ _ _
 72
65
 73
2
 40
2.8575
 49
1.905
 74
0
 49
-0.9525
 74
0
  0
LTYPE
  5
38
330
5
100
AcDbSymbolTableRecord
100
AcDbLinetypeTableRecord
  2
DASHED2
 70
0
  3
Dashed (.5x) _ _ _ _ _ _ _ _ _ _ _ _ _ _ _ _ _
 72
65
 73
2
 40
9.524999999999999
 49
6.35
 74
0
 49
-3.175
 74
0
  0
LTYPE
  5
39
330
5
100
AcDbSymbolTableRecord
100
AcDbLinetypeTableRecord
  2
DASHEDX2
 70
0
  3
Dashed (2x) ____  ____  ____  ____  ____  ___
 72
65
 73
2
 40
38.09999999999999
 49
25.4
 74
0
 49
-12.7
 74
0
  0
LTYPE
  5
3A
330
5
100
AcDbSymbolTableRecord
100
AcDbLinetypeTableRecord
  2
DASHDOT
 70
0
  3
Dash dot __ . __ . __ . __ . __ . __ . __ . __
 72
65
 73
4
 40
25.4
 49
12.7
 74
0
 49
-6.35
 74
0
 49
0.0
 74
0
 49
-6.35
 74
0
  0
LTYPE
  5
3B
330
5
100
AcDbSymbolTableRecord
100
AcDbLinetypeTableRecord
  2
DASHDOTTINY
 70
0
  3
Dash dot (.15x) _._._._._._._._._._._._._._._.
 72
65
 73
4
 40
3.81
 49
1.905
 74
0
 49
-0.9525
 74
0
 49
0.0
 74
0
 49
-0.9525
 74
0
  0
LTYPE
  5
3C
330
5
100
AcDbSymbolTableRecord
100
AcDbLinetypeTableRecord
  2
DASHDOT2
 70
0
  3
Dash dot (.5x) _._._._._._._._._._._._._._._.
 72
65
 73
4
 40
12.7
 49
6.35
 74
0
 49
-3.175
 74
0
 49
0.0
 74
0
 49
-3.175
 74
0
  0
LTYPE
  5
3D
330
5
100
AcDbSymbolTableRecord
100
AcDbLinetypeTableRecord
  2
DASHDOTX2
 70
0
  3
Dash dot (2x) ____  .  ____  .  ____  .  ___
 72
65
 73
4
 40
50.8
 49
25.4
 74
0
 49
-12.7
 74
0
 49
0.0
 74
0
 49
-12.7
 74
0
  0
LTYPE
  5
3E
330
5
100
AcDbSymbolTableRecord
100
AcDbLinetypeTableRecord
  2
DIVIDE
 70
0
  3
Divide ____ . . ____ . . ____ . . ____ . . ____
 72
65
 73
6
 40
31.75
 49
12.7
 74
0
 49
-6.35
 74
0
 49
0.0
 74
0
 49
-6.35
 74
0
 49
0.0
 74
0
 49
-6.35
 74
0
  0
LTYPE
  5
3F
330
5
100
AcDbSymbolTableRecord
100
AcDbLinetypeTableRecord
  2
DIVIDETINY
 70
0
  3
Divide (.15x) __..__..__..__..__..__..__..__.._
 72
65
 73
6
 40
4.7625
 49
1.905
 74
0
 49
-0.9525
 74
0
 49
0.0
 74
0
 49
-0.9525
 74
0
 49
0.0
 74
0
 49
-0.9525
 74
0
  0
LTYPE
  5
40
330
5
100
AcDbSymbolTableRecord
100
AcDbLinetypeTableRecord
  2
DIVIDE2
 70
0
  3
Divide (.5x) __..__..__..__..__..__..__..__.._
 72
65
 73
6
 40
15.875
 49
6.35
 74
0
 49
-3.175
 74
0
 49
0.0
 74
0
 49
-3.175
 74
0
 49
0.0
 74
0
 49
-3.175
 74
0
  0
LTYPE
  5
41
330
5
100
AcDbSymbolTableRecord
100
AcDbLinetypeTableRecord
  2
DIVIDEX2
 70
0
  3
Divide (2x) ________  .  .  ________  .  .  _
 72
65
 73
6
 40
63.5
 49
25.4
 74
0
 49
-12.7
 74
0
 49
0.0
 74
0
 49
-12.7
 74
0
 49
0.0
 74
0
 49
-12.7
 74
0
  0
LTYPE
  5
42
330
5
100
AcDbSymbolTableRecord
100
AcDbLinetypeTableRecord
  2
BORDER
 70
0
  3
Border __ __ . __ __ . __ __ . __ __ . __ __ .
 72
65
 73
6
 40
44.45
 49
12.7
 74
0
 49
-6.35
 74
0
 49
12.7
 74
0
 49
-6.35
 74
0
 49
0.0
 74
0
 49
-6.35
 74
0
  0
LTYPE
  5
43
330
5
100
AcDbSymbolTableRecord
100
AcDbLinetypeTableRecord
  2
BORDERTINY
 70
0
  3
Border (.15x) __.__.__.__.__.__.__.__.__.__.__.
 72
65
 73
6
 40
6.6675
 49
1.905
 74
0
 49
-0.9525
 74
0
 49
1.905
 74
0
 49
-0.9525
 74
0
 49
0.0
 74
0
 49
-0.9525
 74
0
  0
LTYPE
  5
44
330
5
100
AcDbSymbolTableRecord
100
AcDbLinetypeTableRecord
  2
BORDER2
 70
0
  3
Border (.5x) __.__.__.__.__.__.__.__.__.__.__.
 72
65
 73
6
 40
22.225
 49
6.35
 74
0
 49
-3.175
 74
0
 49
6.35
 74
0
 49
-3.175
 74
0
 49
0.0
 74
0
 49
-3.175
 74
0
  0
LTYPE
  5
45
330
5
100
AcDbSymbolTableRecord
100
AcDbLinetypeTableRecord
  2
BORDERX2
 70
0
  3
Border (2x) ____  ____  .  ____  ____  .  ___
 72
65
 73
6
 40
88.89999999999999
 49
25.4
 74
0
 49
-12.7
 74
0
 49
25.4
 74
0
 49
-12.7
 74
0
 49
0.0
 74
0
 49
-12.7
 74
0
  0
LTYPE
  5
46
330
5
100
AcDbSymbolTableRecord
100
AcDbLinetypeTableRecord
  2
CENTER
 70
0
  3
Center ____ _ ____ _ ____ _ ____ _ ____ _ ____
 72
65
 73
4
 40
50.8
 49
31.75
 74
0
 49
-6.35
 74
0
 49
6.35
 74
0
 49
-6.35
 74
0
  0
LTYPE
  5
47
330
5
100
AcDbSymbolTableRecord
100
AcDbLinetypeTableRecord
  2
CENTERTINY
 70
0
  3
Center (.15x) ___ _ ___ _ ___ _ ___ _ ___ _ ___
 72
65
 73
4
 40
7.619999999999999
 49
4.7625
 74
0
 49
-0.9525
 74
0
 49
0.9525
 74
0
 49
-0.9525
 74
0
  0
LTYPE
  5
48
330
5
100
AcDbSymbolTableRecord
100
AcDbLinetypeTableRecord
  2
CENTER2
 70
0
  3
Center (.5x) ___ _ ___ _ ___ _ ___ _ ___ _ ___
 72
65
 73
4
 40
28.575
 49
19.05
 74
0
 49
-3.175
 74
0
 49
3.175
 74
0
 49
-3.175
 74
0
  0
LTYPE
  5
49
330
5
100
AcDbSymbolTableRecord
100
AcDbLinetypeTableRecord
  2
CENTERX2
 70
0
  3
Center (2x) ________  __  ________  __  _____
 72
65
 73
4
 40
101.6
 49
63.5
 74
0
 49
-12.7
 74
0
 49
12.7
 74
0
 49
-12.7
 74
0
  0
ENDTAB
  0
TABLE
  2
LAYER
  5
2
330
0
100
AcDbSymbolTable
 70
8
  0
LAYER
  5
10
330
2
100
AcDbSymbolTableRecord
100
AcDbLayerTableRecord
  2
0
 70
0
 62
7
  6
CONTINUOUS
370
-3
390
F
347
2000F
  0
LAYER
  5
4A
330
2
100
AcDbSymbolTableRecord
100
AcDbLayerTableRecord
  2
0_SHEET_SPRUCEPLY_2440X122
 70
0
 62
1
  6
CONTINUOUS
370
-3
390
F
347
2000F
  0
LAYER
  5
4B
330
2
100
AcDbSymbolTableRecord
100
AcDbLayerTableRecord
  2
1_ANYTOOL_1MMDEEP_LABELS_S
 70
0
 62
2
  6
CONTINUOUS
370
-3
390
F
347
2000F
  0
LAYER
  5
4C
330
2
100
AcDbSymbolTableRecord
100
AcDbLayerTableRecord
  2
3_ANYTOOL_CUTTHROUGH_INSID
 70
0
 62
4
  6
CONTINUOUS
370
-3
390
F
347
2000F
  0
LAYER
  5
4D
330
2
100
AcDbSymbolTableRecord
100
AcDbLayerTableRecord
  2
4_ANYTOOL_CUTTHROUGH_OUTSI
 70
0
 62
5
  6
CONTINUOUS
370
-3
390
F
347
2000F
  0
LAYER
  5
4E
330
2
100
AcDbSymbolTableRecord
100
AcDbLayerTableRecord
  2
5_ANYTOOL_HALF_MILL_9MM_IN
 70
0
 62
3
  6
CONTINUOUS
370
-3
390
F
347
2000F
  0
LAYER
  5
4F
330
2
100
AcDbSymbolTableRecord
100
AcDbLayerTableRecord
  2
DONOTCUT
 70
0
 62
18
  6
CONTINUOUS
370
-3
390
F
347
2000F
  0
LAYER
  5
20011
330
2
100
AcDbSymbolTableRecord
100
AcDbLayerTableRecord
  2
Defpoints
 70
0
 62
7
  6
Continuous
290
0
370
-3
390
20007
347
2000F
  0
ENDTAB
  0
TABLE
  2
STYLE
  5
3
330
0
100
AcDbSymbolTable
 70
1
  0
STYLE
  5
50
330
3
100
AcDbSymbolTableRecord
100
AcDbTextStyleTableRecord
  2
Standard
 70
0
 40
0.0
 41
1.0
 50
0.0
 71
0
 42
1.0
  3
txt
  4

  0
ENDTAB
  0
TABLE
  2
VIEW
  5
6
330
0
100
AcDbSymbolTable
 70
0
  0
ENDTAB
  0
TABLE
  2
UCS
  5
7
330
0
100
AcDbSymbolTable
 70
0
  0
ENDTAB
  0
TABLE
  2
APPID
  5
9
330
0
100
AcDbSymbolTable
 70
4
  0
APPID
  5
12
330
9
100
AcDbSymbolTableRecord
100
AcDbRegAppTableRecord
  2
ACAD
 70
0
  0
APPID
  5
51
330
9
100
AcDbSymbolTableRecord
100
AcDbRegAppTableRecord
  2
LibreCad
 70
0
  0
APPID
  5
20013
330
9
100
AcDbSymbolTableRecord
100
AcDbRegAppTableRecord
  2
HATCHBACKGROUNDCOLOR
 70
0
  0
APPID
  5
20014
330
9
100
AcDbSymbolTableRecord
100
AcDbRegAppTableRecord
  2
EZDXF
 70
0
  0
ENDTAB
  0
TABLE
  2
DIMSTYLE
  5
A
330
0
100
AcDbSymbolTable
 70
1
100
AcDbDimStyleTable
  0
DIMSTYLE
105
52
330
A
100
AcDbSymbolTableRecord
100
AcDbDimStyleTableRecord
  2
Standard
 70
0
 40
1.0
 41
0.18
 42
0.0625
 43
0.38
 44
0.18
 45
0.0
 46
0.0
 47
0.0
 48
0.0
 49
1.0
140
0.18
141
0.09
142
0.0
143
25.4
144
1.0
145
0.0
146
1.0
147
0.09
148
0.0
 69
0
 70
0
 71
0
 72
0
 73
1
 74
1
 75
0
 76
0
 77
0
 78
0
 79
0
170
0
171
2
172
0
173
0
174
0
175
0
176
0
177
0
178
0
179
0
271
4
272
4
273
2
274
2
275
0
276
0
277
2
278
44
279
0
280
0
281
0
282
0
283
1
284
0
285
0
286
0
288
0
289
3
290
0
371
-2
372
-2
  0
ENDTAB
  0
TABLE
  2
BLOCK_RECORD
  5
1
330
0
100
AcDbSymbolTable
 70
2
  0
BLOCK_RECORD
  5
1F
330
1
100
AcDbSymbolTableRecord
100
AcDbBlockTableRecord
  2
*Model_Space
340
2000B
 70
0
280
1
281
0
  0
BLOCK_RECORD
  5
1E
330
1
100
AcDbSymbolTableRecord
100
AcDbBlockTableRecord
  2
*Paper_Space
340
2000C
 70
0
280
1
281
0
  0
ENDTAB
  0
ENDSEC
  0
SECTION
  2
BLOCKS
  0
BLOCK
  5
20
330
1F
100
AcDbEntity
  8
0
100
AcDbBlockBegin
  2
*Model_Space
 70
0
 10
0.0
 20
0.0
 30
0.0
  3
*Model_Space
  1

  0
ENDBLK
  5
21
330
1F
100
AcDbEntity
  8
0
100
AcDbBlockEnd
  0
BLOCK
  5
1C
330
1E
100
AcDbEntity
  8
0
100
AcDbBlockBegin
  2
*Paper_Space
 70
0
 10
0.0
 20
0.0
 30
0.0
  3
*Paper_Space
  1

  0
ENDBLK
  5
1D
330
1E
100
AcDbEntity
  8
0
100
AcDbBlockEnd
  0
ENDSEC
  0
SECTION
  2
ENTITIES
  0
LWPOLYLINE
  5
53
330
1F
100
AcDbEntity
  8
5_ANYTOOL_HALF_MILL_9MM_IN
  6
ByLayer
100
AcDbPolyline
 90
182
 70
1
 10
19.660446914173093
 20
125.16728770312099
 10
19.603148421627367
 20
124.96782855132508
 10
19.552781999720565
 20
124.76650718130509
 10
19.509407902192862
 20
124.56356443532809
 10
19.47307801776887
 20
124.35924309532518
 10
19.443835808180808
 20
124.15378759245209
 10
19.421716256123574
 20
123.9474437146691
 10
19.406745823338582
 20
123.74045831270911
 10
19.398942419107783
 20
123.53307900476219
 10
19.39831537868858
 20
123.32555388025298
 10
19.404865452203097
 20
123.11813120304811
 10
19.41858480375791
 20
122.91105911445311
 10
19.439457020800575
 20
122.7045853363652
 10
19.467457133721865
 20
122.498956874914
 10
19.502551645788202
 20
122.29441972497509
 10
19.544698573159707
 20
122.0912185758771
 10
19.593847495159963
 20
121.8895965186812
 10
19.649939614571878
 20
121.68979475537
 10
19.712907827959583
 20
121.4920523102931
 10
19.782676805980515
 20
121.29660574422309
 10
19.8591630834691
 20
121.10368887135701
 10
19.942275159350316
 20
120.91353247959711
 10
20.0319136059899
 20
120.7263640544661
 10
20.12797118825077
 20
120.54240750695499
 10
20.230332991717802
 20
120.3618829056652
 10
20.33887656021946
 20
120.185006213532
 10
20.45347204225081
 20
120.01198902947411
 10
20.57398234637921
 20
119.84303833524518
 10
20.700263305230777
 20
119.6783562478322
 10
20.832163847937494
 20
119.518139777653
 10
20.969526180893894
 20
119.36258059287618
 10
21.112185976488064
 20
119.21186479011999
 10
21.259972569771065
 20
119.0661726718352
 10
21.412709162503262
 20
118.9256785305952
 10
21.570213034761906
 20
118.79055044059811
 10
21.732295763473388
 20
118.6609500565921
 10
21.898763447859977
 20
118.53703242049119
 10
22.069416941382002
 20
118.41894577589301
 10
22.24405208996731
 20
118.3068313907402
 10
22.422459976287513
 20
118.2008233883121
 10
22.604427169657498
 20
118.10104858678011
 10
22.789735981348798
 20
118.0076263474871
 10
22.9781647250185
 20
117.9206684321612
 10
23.16948798196799
 20
117.8402788692081
 10
23.363476870747064
 20
117.7665538292681
 10
23.559899320976996
 20
117.69958151015999
 10
23.75852035102261
 20
117.63944203137109
 10
23.959102349033998
 20
117.5862073382132
 10
24.161405357268478
 20
117.53994111574909
 10
24.365187359120767
 20
117.500698712608
 10
24.57020456863947
 20
117.46852707477109
 10
24.776211722213787
 20
117.4434646894122
 10
24.982962371917978
 20
117.42554153884998
 10
25.19020918042051
 20
117.414779064685
 10
25.39770421678807
 20
117.41119014214519
 10
64.60229578459811
 20
117.411190142137
 10
64.80979082095851
 20
117.4147790646771
 10
65.01703762946099
 20
117.425541538842
 10
65.22378827917251
 20
117.44346468940421
 10
65.4297954327395
 20
117.46852707476319
 10
65.6348126422582
 20
117.50069871259919
 10
65.83859464411037
 20
117.53994111573999
 10
66.0408976523523
 20
117.5862073382041
 10
66.24147965036357
 20
117.639442031362
 10
66.44010068040197
 20
117.69958151014998
 10
66.63652313063906
 20
117.76655382925901
 10
66.83051201941097
 20
117.8402788691981
 10
67.02183527636046
 20
117.92066843215119
 10
67.21026402003017
 20
118.0076263474771
 10
67.39557283172147
 20
118.10104858676911
 10
67.57754002509151
 20
118.2008233883021
 10
67.75594791141171
 20
118.3068313907302
 10
67.93058305999696
 20
118.418945775883
 10
68.10123655351899
 20
118.53703242047999
 10
68.26770423791291
 20
118.66095005658099
 10
68.42978696661712
 20
118.79055044058708
 10
68.58729083888286
 20
118.92567853058401
 10
68.7400274316079
 20
119.066172671824
 10
68.8878140248909
 20
119.21186479010998
 10
69.0304738204924
 20
119.36258059286499
 10
69.16783615344147
 20
119.518139777643
 10
69.29973669614819
 20
119.6783562478222
 10
69.42601765499248
 20
119.84303833523398
 10
69.54652795912821
 20
120.0119890294632
 10
69.6611234411595
 20
120.185006213522
 10
69.76966700966116
 20
120.36188290565408
 10
69.8720288131282
 20
120.5424075069441
 10
69.96808639538907
 20
120.72636405445519
 10
70.0577248420287
 20
120.9135324795871
 10
70.14083691790987
 20
121.1036888713461
 10
70.21732319541312
 20
121.29660574421311
 10
70.28709217341938
 20
121.4920523102821
 10
70.35006038680697
 20
121.68979475536
 10
70.406152506219
 20
121.8895965186712
 10
70.45530142821931
 20
122.09121857586709
 10
70.49744835559798
 20
122.29441972496511
 10
70.5325428676571
 20
122.498956874904
 10
70.56054298059288
 20
122.7045853363552
 10
70.58141519762839
 20
122.9110591144431
 10
70.5951345491832
 20
123.1181312030381
 10
70.60168462269039
 20
123.3255538802432
 10
70.60105758227118
 20
123.53307900475221
 10
70.59325417804038
 20
123.7404583126991
 10
70.57828374526261
 20
123.94744371465998
 10
70.55616419319088
 20
124.15378759244209
 10
70.5269219836101
 20
124.35924309531609
 10
70.49059209919326
 20
124.56356443531809
 10
70.44721800165107
 20
124.76650718129508
 10
70.3968515797516
 20
124.96782855131511
 10
70.3395530872132
 20
125.16728770311099
 10
70.0535100156832
 20
126.0466771538022
 10
69.73695869208868
 20
126.9155509675802
 10
69.39028458844959
 20
127.77285109624609
 10
69.0139098580386
 20
128.617533585146
 10
68.6082928212837
 20
129.4485698444212
 10
68.17392740762998
 20
130.2649479015502
 10
67.71134255413031
 20
131.0656736336541
 10
67.22110156129762
 20
131.8497719780571
 10
66.70380140720047
 20
132.6162881196492
 10
66.16007202050068
 20
133.3642886535831
 10
65.59057551328996
 20
134.0928627219082
 10
64.996005375002
 20
134.801123122736
 10
64.37708562770976
 20
135.4882073906172
 10
63.73456994467969
 20
136.1532788467762
 10
63.069240732451505
 20
136.7955276179612
 10
62.381908178138616
 20
137.4141716226441
 10
61.67340926288128
 20
138.0084575233791
 10
60.94460674255069
 20
138.5776616441601
 10
60.19638809725271
 20
139.1210908516591
 10
59.4296644505213
 20
139.638083399268
 10
58.64536945988047
 20
140.12800973292698
 10
57.844458179917666
 20
140.5902732577451
 10
57.0279058992584
 20
141.0243110644872
 10
56.19670695291828
 20
141.429594615043
 10
55.351873511548575
 20
141.8056303860431
 10
54.49443434880058
 20
142.1519604698301
 10
53.625433588660684
 20
142.46816313206318
 10
52.7459294338897
 20
142.7538533252771
 10
51.85699287753786
 20
143.008683157763
 10
50.959706398678605
 20
143.23234231720198
 10
50.05516264430307
 20
143.4245584485441
 10
49.144463098729915
 20
143.5850974856562
 10
48.22871674236197
 20
143.7137639363541
 10
47.309038701188996
 20
143.8104011204541
 10
46.38654888896238
 20
143.87489136057118
 10
45.4623706433396
 20
143.9071561254132
 10
44.53762935803937
 20
143.9071561254141
 10
43.61345111240931
 20
143.87489136057118
 10
42.69096130018269
 20
143.8104011204541
 10
41.771283259024216
 20
143.7137639363541
 10
40.855536902649106
 20
143.5850974856562
 10
39.944837357068565
 20
143.4245584485441
 10
39.0402936026932
 20
143.23234231720198
 10
38.14300712383377
 20
143.008683157763
 10
37.25407056748199
 20
142.7538533252771
 10
36.37456641271828
 20
142.46816313206318
 10
35.50556565257111
 20
142.1519604698301
 10
34.648126489830275
 20
141.8056303860442
 10
33.80329304845341
 20
141.429594615043
 10
32.972094102120565
 20
141.0243110644872
 10
32.155541821439414
 20
140.5902732577451
 10
31.35463054149116
 20
140.12800973292698
 10
30.5703355508505
 20
139.638083399268
 10
29.80361190411898
 20
139.1210908516591
 10
29.055393258821
 20
138.5776616441601
 10
28.32659073849041
 20
138.0084575233791
 10
27.618091823240405
 20
137.4141716226441
 10
26.930759268920298
 20
136.7955276179612
 10
26.265430056691997
 20
136.1532788467762
 10
25.62291437366187
 20
135.4882073906172
 10
25.003994626376965
 20
134.801123122736
 10
24.409424488067174
 20
134.0928627219082
 10
23.839927980878286
 20
133.3642886535831
 10
23.296198594163883
 20
132.6162881196492
 10
22.778898440081406
 20
131.8497719780571
 10
22.28865744724871
 20
131.0656736336541
 10
21.82607259374899
 20
130.2649479015502
 10
21.39170718008799
 20
129.4485698444212
 10
20.9860901433332
 20
128.617533585146
 10
20.609715412929376
 20
127.772851096247
 10
20.263041309290287
 20
126.9155509675802
 10
19.9464899856886
 20
126.0466771538022
  0
LWPOLYLINE
  5
54
330
1F
100
AcDbEntity
  8
5_ANYTOOL_HALF_MILL_9MM_IN
  6
ByLayer
100
AcDbPolyline
 90
182
 70
1
 10
19.660446914173093
 20
-2.344907418685807
 10
19.603148421627367
 20
-2.1454482668897867
 10
19.552781999720565
 20
-1.944126896869932
 10
19.509407902192862
 20
-1.7411841508928774
 10
19.47307801776887
 20
-1.5368628108907956
 10
19.443835808180808
 20
-1.3314073080168782
 10
19.421716256123574
 20
-1.1250634302348317
 10
19.406745823338582
 20
-0.9180780282737828
 10
19.398942419107783
 20
-0.7106987203279118
 10
19.39831537868858
 20
-0.5031735958189074
 10
19.404865452203097
 20
-0.29575091861278224
 10
19.41858480375791
 20
-0.08867883001880728
 10
19.439457020800575
 20
0.11779494807001356
 10
19.467457133721865
 20
0.3234234095199895
 10
19.502551645788202
 20
0.5279605594591885
 10
19.544698573159707
 20
0.7311617085570106
 10
19.593847495159963
 20
0.9327837657530722
 10
19.649939614571878
 20
1.1325855290651816
 10
19.712907827959583
 20
1.3303279741422216
 10
19.782676805980515
 20
1.5257745402112164
 10
19.8591630834691
 20
1.7186914130782043
 10
19.942275159350316
 20
1.9088478048370234
 10
20.0319136059899
 20
2.096016229969109
 10
20.12797118825077
 20
2.2799727774799976
 10
20.230332991717802
 20
2.4604973787700146
 10
20.33887656021946
 20
2.6373740709020694
 10
20.45347204225081
 20
2.8103912549610754
 10
20.57398234637921
 20
2.97934194918912
 10
20.700263305230777
 20
3.1440240366021044
 10
20.832163847937494
 20
3.3042405067810705
 10
20.969526180893894
 20
3.4597996915591125
 10
21.112185976488064
 20
3.610515494314086
 10
21.259972569771065
 20
3.756207612599212
 10
21.412709162503262
 20
3.8967017538391246
 10
21.570213034761906
 20
4.031829843837215
 10
21.732295763473388
 20
4.161430227843084
 10
21.898763447859977
 20
4.285347863943969
 10
22.069416941382002
 20
4.403434508541125
 10
22.24405208996731
 20
4.515548893694074
 10
22.422459976287513
 20
4.6215568961220015
 10
22.604427169657498
 20
4.721331697655216
 10
22.789735981348798
 20
4.81475393694808
 10
22.9781647250185
 20
4.901711852274104
 10
23.16948798196799
 20
4.982101415225998
 10
23.363476870747064
 20
5.055826455166198
 10
23.559899320976996
 20
5.122798774274997
 10
23.75852035102261
 20
5.182938253063185
 10
23.959102349033998
 20
5.236172946221075
 10
24.161405357268478
 20
5.282439168686096
 10
24.365187359120767
 20
5.321681571827185
 10
24.57020456863947
 20
5.353853209663214
 10
24.776211722213787
 20
5.378915595022079
 10
24.982962371917978
 20
5.396838745584091
 10
25.19020918042051
 20
5.407601219750177
 10
25.39770421678807
 20
5.411190142290025
 10
64.60229578459811
 20
5.411190142283203
 10
64.80979082095851
 20
5.407601219743071
 10
65.01703762946099
 20
5.396838745578179
 10
65.22378827917251
 20
5.378915595015997
 10
65.4297954327395
 20
5.353853209657018
 10
65.6348126422582
 20
5.321681571820989
 10
65.83859464411037
 20
5.282439168680185
 10
66.0408976523523
 20
5.236172946216072
 10
66.24147965036357
 20
5.1829382530581825
 10
66.44010068040197
 20
5.122798774269995
 10
66.63652313063906
 20
5.0558264551611956
 10
66.83051201941097
 20
4.9821014152220755
 10
67.02183527636046
 20
4.901711852270182
 10
67.21026402003017
 20
4.814753936943077
 10
67.39557283172147
 20
4.721331697651124
 10
67.57754002509151
 20
4.621556896118079
 10
67.75594791141171
 20
4.5155488936899815
 10
67.93058305999696
 20
4.403434508537202
 10
68.10123655351899
 20
4.285347863940217
 10
68.26770423791291
 20
4.161430227838991
 10
68.42978696661712
 20
4.031829843833123
 10
68.58729083888286
 20
3.896701753836169
 10
68.7400274316079
 20
3.7562076125961994
 10
68.8878140248909
 20
3.6105154943099933
 10
69.0304738204924
 20
3.4597996915551903
 10
69.16783615344147
 20
3.304240506777205
 10
69.29973669614819
 20
3.1440240365980117
 10
69.42601765499248
 20
2.979341949186221
 10
69.54652795912821
 20
2.8103912549569827
 10
69.6611234411595
 20
2.637374070898204
 10
69.76966700966116
 20
2.460497378766206
 10
69.8720288131282
 20
2.2799727774760754
 10
69.96808639538907
 20
2.0960162299650165
 10
70.0577248420287
 20
1.908847804833215
 10
70.14083691790987
 20
1.7186914130741116
 10
70.21732319541312
 20
1.5257745402071237
 10
70.28709217341938
 20
1.330327974138072
 10
70.35006038680697
 20
1.1325855290601794
 10
70.406152506219
 20
0.9327837657489795
 10
70.45530142821931
 20
0.7311617085530884
 10
70.49744835559798
 20
0.5279605594550958
 10
70.5325428676571
 20
0.323423409516181
 10
70.56054298059288
 20
0.11779494806501134
 10
70.58141519762839
 20
-0.0886788300229
 10
70.5951345491832
 20
-0.29575091861778446
 10
70.60168462269039
 20
-0.5031735958230001
 10
70.60105758227118
 20
-0.7106987203318909
 10
70.59325417804038
 20
-0.918078028278785
 10
70.57828374526261
 20
-1.125063430239777
 10
70.55616419319088
 20
-1.3314073080218805
 10
70.5269219836101
 20
-1.5368628108959115
 10
70.49059209919326
 20
-1.7411841508978796
 10
70.44721800165107
 20
-1.9441268968748773
 10
70.3968515797516
 20
-2.145448266894789
 10
70.3395530872132
 20
-2.344907418690809
 10
70.0535100156832
 20
-3.224296869366981
 10
69.73695869208868
 20
-4.09317068314499
 10
69.39028458844959
 20
-4.950470811812011
 10
69.0139098580386
 20
-5.795153300710808
 10
68.6082928212837
 20
-6.626189559986017
 10
68.17392740762998
 20
-7.4425676171159125
 10
67.71134255413031
 20
-8.243293349218902
 10
67.22110156129762
 20
-9.027391693621894
 10
66.70380140720047
 20
-9.793907835213986
 10
66.16007202050068
 20
-10.541908369148814
 10
65.59057551328996
 20
-11.270482437472992
 10
64.996005375002
 20
-11.978742838302026
 10
64.37708562770976
 20
-12.665827106181894
 10
63.73456994467969
 20
-13.33089856234102
 10
63.069240732451505
 20
-13.973147333526015
 10
62.381908178138616
 20
-14.591791338208793
 10
61.67340926288128
 20
-15.18607723894388
 10
60.94460674255069
 20
-15.755281359725814
 10
60.19638809725271
 20
-16.298710567223907
 10
59.4296644505213
 20
-16.815703114833923
 10
58.64536945988047
 20
-17.30562944849288
 10
57.844458179917666
 20
-17.767892973309927
 10
57.0279058992584
 20
-18.201930780051896
 10
56.19670695291828
 20
-18.607214330608883
 10
55.351873511548575
 20
-18.98325010160903
 10
54.49443434880058
 20
-19.32958018539489
 10
53.625433588660684
 20
-19.645782847628027
 10
52.7459294338897
 20
-19.931473040841922
 10
51.85699287753786
 20
-20.186302873327804
 10
50.959706398678605
 20
-20.409962032767908
 10
50.05516264430307
 20
-20.60217816411
 10
49.144463098729915
 20
-20.762717201221903
 10
48.22871674236197
 20
-20.891383651918886
 10
47.309038701188996
 20
-20.988020836018904
 10
46.38654888896238
 20
-21.052511076135886
 10
45.4623706433396
 20
-21.08477584097892
 10
44.53762935803937
 20
-21.08477584097892
 10
43.61345111240931
 20
-21.052511076136796
 10
42.69096130018269
 20
-20.988020836018904
 10
41.771283259024216
 20
-20.891383651918886
 10
40.855536902649106
 20
-20.762717201221903
 10
39.944837357068565
 20
-20.60217816411
 10
39.0402936026932
 20
-20.409962032767908
 10
38.14300712383377
 20
-20.186302873327804
 10
37.25407056748199
 20
-19.931473040841922
 10
36.37456641271828
 20
-19.645782847628027
 10
35.50556565257111
 20
-19.32958018539489
 10
34.648126489830275
 20
-18.98325010160903
 10
33.80329304845341
 20
-18.607214330608883
 10
32.972094102120565
 20
-18.201930780051896
 10
32.155541821439414
 20
-17.767892973309927
 10
31.35463054149116
 20
-17.30562944849288
 10
30.5703355508505
 20
-16.815703114833923
 10
29.80361190411898
 20
-16.298710567223907
 10
29.055393258821
 20
-15.755281359725814
 10
28.32659073849041
 20
-15.18607723894388
 10
27.618091823240405
 20
-14.591791338208793
 10
26.930759268920298
 20
-13.973147333526015
 10
26.265430056691997
 20
-13.33089856234102
 10
25.62291437366187
 20
-12.665827106181894
 10
25.003994626376965
 20
-11.978742838302026
 10
24.409424488067174
 20
-11.270482437472992
 10
23.839927980878286
 20
-10.541908369148814
 10
23.296198594163883
 20
-9.793907835213986
 10
22.778898440081406
 20
-9.027391693621894
 10
22.28865744724871
 20
-8.243293349218902
 10
21.82607259374899
 20
-7.4425676171159125
 10
21.39170718008799
 20
-6.626189559986017
 10
20.9860901433332
 20
-5.795153300710808
 10
20.609715412929376
 20
-4.950470811812011
 10
20.263041309290287
 20
-4.09317068314499
 10
19.9464899856886
 20
-3.224296869366981
  0
LWPOLYLINE
  5
55
330
1F
100
AcDbEntity
  8
4_ANYTOOL_CUTTHROUGH_OUTSI
  6
ByLayer
100
AcDbPolyline
 90
21
 70
1
 10
71.8639610356096
 20
5.411190137290987
 10
83.99999999996916
 20
5.411190142209989
 42
0.4142135623746268
 10
89.99999999999827
 20
11.411190142213172
 10
73.10075154014598
 20
59.69475717032128
 42
-0.1460887458255115
 10
73.10075154014888
 20
63.127623114098924
 10
89.9999999999977
 20
111.4111901422061
 42
0.4142135623747263
 10
83.99999999996916
 20
117.41119014220979
 10
71.86396103069907
 20
117.41119014221618
 42
-0.8746233832549236
 10
64.77293658626897
 20
122.8223802844239
 42
0.7631041444898516
 10
25.227063413730974
 20
122.8223802844395
 42
-0.8746233832558069
 10
18.136038969320083
 20
117.4111901422109
 10
6.000004197127197
 20
117.4111901422082
 10
6.000004197127197
 20
117.41119014220808
 42
0.4142137672594505
 10
5.5990767577895895e-12
 20
111.41119014218819
 10
16.8992484598476
 20
63.12762311403617
 42
-0.1460887458195556
 10
16.8992484598476
 20
59.69475717038898
 10
0.0
 20
11.411190142231987
 42
0.414213767259384
 10
6.000004197127197
 20
5.411190142211069
 10
18.136038964408073
 20
5.411190137313724
 42
-0.874623383932803
 10
25.227063413730292
 20
0.0
 42
0.7631041444948812
 10
64.77293658628147
 20
5.9117155615240335e-12
 42
-0.8746233839330259
  0
ENDSEC
  0
SECTION
  2
OBJECTS
  0
DICTIONARY
  5
C
330
0
100
AcDbDictionary
281
1
  3
ACAD_GROUP
350
D
  3
ACAD_COLOR
350
20000
  3
ACAD_LAYOUT
350
20001
  3
ACAD_MATERIAL
350
20002
  3
ACAD_MLEADERSTYLE
350
20003
  3
ACAD_MLINESTYLE
350
20004
  3
ACAD_PLOTSETTINGS
350
20005
  3
ACAD_PLOTSTYLENAME
350
20006
  3
ACAD_SCALELIST
350
20008
  3
ACAD_TABLESTYLE
350
20009
  3
ACAD_VISUALSTYLE
350
2000A
  3
EZDXF_META
350
20015
  0
DICTIONARY
  5
D
330
C
100
AcDbDictionary
281
1
  0
PLOTSETTINGS
  5
56
330
None
100
AcDbPlotSettings
  1

  4
A3
  6
1x1
 40
0.0
 41
0.0
 42
0.0
 43
0.0
 44
420.0
 45
297.0
 46
0.0
 47
0.0
 48
0.0
 49
0.0
140
0.0
141
0.0
142
1.0
143
1.0
 70
688
 72
1
 73
0
 74
5
  7

 75
16
 76
0
 77
2
 78
300
147
1.0
148
0.0
149
0.0
  0
DICTIONARY
  5
20000
330
C
100
AcDbDictionary
280
0
281
1
  0
DICTIONARY
  5
20001
330
C
100
AcDbDictionary
280
0
281
1
  3
Model
350
2000B
  3
Layout1
350
2000C
  0
DICTIONARY
  5
20002
330
C
100
AcDbDictionary
280
0
281
1
  3
ByBlock
350
2000D
  3
ByLayer
350
2000E
  3
Global
350
2000F
  0
DICTIONARY
  5
20003
330
C
100
AcDbDictionary
280
0
281
1
  3
Standard
350
20012
  0
DICTIONARY
  5
20004
330
C
100
AcDbDictionary
280
0
281
1
  3
Standard
350
20010
  0
DICTIONARY
  5
20005
330
C
100
AcDbDictionary
280
0
281
1
  0
ACDBDICTIONARYWDFLT
  5
20006
330
C
100
AcDbDictionary
280
0
281
1
  3
Normal
350
20007
100
AcDbDictionaryWithDefault
340
20007
  0
ACDBPLACEHOLDER
  5
20007
330
20006
  0
DICTIONARY
  5
20008
330
C
100
AcDbDictionary
280
0
281
1
  0
DICTIONARY
  5
20009
330
C
100
AcDbDictionary
280
0
281
1
  0
DICTIONARY
  5
2000A
330
C
100
AcDbDictionary
280
0
281
1
  0
LAYOUT
  5
2000B
330
20001
100
AcDbPlotSettings
  1

  4
A3
  6

 40
7.5
 41
20.0
 42
7.5
 43
20.0
 44
420.0
 45
297.0
 46
0.0
 47
0.0
 48
0.0
 49
0.0
140
0.0
141
0.0
142
1.0
143
1.0
 70
1024
 72
1
 73
0
 74
5
  7

 75
16
 76
0
 77
2
 78
300
147
1.0
148
0.0
149
0.0
100
AcDbLayout
  1
Model
 70
1
 71
0
 10
0.0
 20
0.0
 11
420.0
 21
297.0
 12
0.0
 22
0.0
 32
0.0
 14
1e+20
 24
1e+20
 34
1e+20
 15
-1e+20
 25
-1e+20
 35
-1e+20
146
0.0
 13
0.0
 23
0.0
 33
0.0
 16
1.0
 26
0.0
 36
0.0
 17
0.0
 27
1.0
 37
0.0
 76
1
330
1F
  0
LAYOUT
  5
2000C
330
20001
100
AcDbPlotSettings
  1

  4
A3
  6

 40
7.5
 41
20.0
 42
7.5
 43
20.0
 44
420.0
 45
297.0
 46
0.0
 47
0.0
 48
0.0
 49
0.0
140
0.0
141
0.0
142
1.0
143
1.0
 70
0
 72
1
 73
0
 74
5
  7

 75
16
 76
0
 77
2
 78
300
147
1.0
148
0.0
149
0.0
100
AcDbLayout
  1
Layout1
 70
1
 71
1
 10
0.0
 20
0.0
 11
420.0
 21
297.0
 12
0.0
 22
0.0
 32
0.0
 14
1e+20
 24
1e+20
 34
1e+20
 15
-1e+20
 25
-1e+20
 35
-1e+20
146
0.0
 13
0.0
 23
0.0
 33
0.0
 16
1.0
 26
0.0
 36
0.0
 17
0.0
 27
1.0
 37
0.0
 76
1
330
1E
  0
MATERIAL
  5
2000D
102
{ACAD_REACTORS
330
20002
102
}
330
20002
100
AcDbMaterial
  1
ByBlock
  2

 70
0
 40
1.0
 71
1
 41
1.0
 91
-1023410177
 42
1.0
 72
1
  3

 73
1
 74
1
 75
1
 44
0.5
 73
0
 45
1.0
 46
1.0
 77
1
  4

 78
1
 79
1
170
1
 48
1.0
171
1
  6

172
1
173
1
174
1
140
1.0
141
1.0
175
1
  7

176
1
177
1
178
1
143
1.0
179
1
  8

270
1
271
1
272
1
145
1.0
146
1.0
273
1
  9

274
1
275
1
276
1
 42
1.0
 72
1
  3

 73
1
 74
1
 75
1
 94
63
  0
MATERIAL
  5
2000E
102
{ACAD_REACTORS
330
20002
102
}
330
20002
100
AcDbMaterial
  1
ByLayer
  2

 70
0
 40
1.0
 71
1
 41
1.0
 91
-1023410177
 42
1.0
 72
1
  3

 73
1
 74
1
 75
1
 44
0.5
 73
0
 45
1.0
 46
1.0
 77
1
  4

 78
1
 79
1
170
1
 48
1.0
171
1
  6

172
1
173
1
174
1
140
1.0
141
1.0
175
1
  7

176
1
177
1
178
1
143
1.0
179
1
  8

270
1
271
1
272
1
145
1.0
146
1.0
273
1
  9

274
1
275
1
276
1
 42
1.0
 72
1
  3

 73
1
 74
1
 75
1
 94
63
  0
MATERIAL
  5
2000F
102
{ACAD_REACTORS
330
20002
102
}
330
20002
100
AcDbMaterial
  1
Global
  2

 70
0
 40
1.0
 71
1
 41
1.0
 91
-1023410177
 42
1.0
 72
1
  3

 73
1
 74
1
 75
1
 44
0.5
 73
0
 45
1.0
 46
1.0
 77
1
  4

 78
1
 79
1
170
1
 48
1.0
171
1
  6

172
1
173
1
174
1
140
1.0
141
1.0
175
1
  7

176
1
177
1
178
1
143
1.0
179
1
  8

270
1
271
1
272
1
145
1.0
146
1.0
273
1
  9

274
1
275
1
276
1
 42
1.0
 72
1
  3

 73
1
 74
1
 75
1
 94
63
  0
MLINESTYLE
  5
20010
102
{ACAD_REACTORS
330
20004
102
}
330
20004
100
AcDbMlineStyle
  2
Standard
 70
0
  3

 62
256
 51
90.0
 52
90.0
 71
2
 49
0.5
 62
256
  6
BYLAYER
 49
-0.5
 62
256
  6
BYLAYER
  0
MLEADERSTYLE
  5
20012
102
{ACAD_REACTORS
330
20003
102
}
330
20003
100
AcDbMLeaderStyle
179
2
170
2
171
1
172
0
 90
2
 40
0.0
 41
0.0
173
1
 91
-1056964608
 92
-2
290
1
 42
2.0
291
1
 43
8.0
  3
Standard
 44
4.0
300

342
50
174
1
175
1
176
0
178
1
 93
-1056964608
 45
4.0
292
0
297
0
 46
4.0
 94
-1056964608
 47
1.0
 49
1.0
140
1.0
294
1
141
0.0
177
0
142
1.0
295
0
296
0
143
3.75
271
0
272
9
273
9
  0
DICTIONARY
  5
20015
330
C
100
AcDbDictionary
281
1
  3
WRITTEN_BY_EZDXF
350
20016
  0
DICTIONARYVAR
  5
20016
330
20015
100
DictionaryVariables
280
0
  1
1.3.1 @ 2024-07-06T20:00:29.493510+00:00
  0
ENDSEC
  0
EOF
