999
dxfrw 0.6.3
  0
SECTION
  2
HEADER
  9
$ACADVER
  1
AC1021
  9
$DWGCODEPAGE
  3
ANSI_1252
  9
$INSBASE
 10
0
 20
0
 30
0
  9
$EXTMIN
 10
-36000.00003124219
 20
-14000
 30
0
  9
$EXTMAX
 10
344.5872512467985
 20
-212.574338788404
 30
0
  9
$LIMMIN
 10
0
 20
0
  9
$LIMMAX
 10
12
 20
9
  9
$ORTHOMODE
 70
    0
  9
$REGENMODE
 70
    1
  9
$FILLMODE
 70
    1
  9
$QTEXTMODE
 70
    0
  9
$MIRRTEXT
 70
    1
  9
$LTSCALE
 40
1
  9
$ATTMODE
 70
    1
  9
$TEXTSIZE
 40
0.2
  9
$TRACEWID
 40
0.05
  9
$TEXTSTYLE
  7
STANDARD
  9
$CLAYER
  8
4_ANYTOOL_CUTTHROUGH_OUTSI
  9
$CELTYPE
  6
BYLAYER
  9
$CECOLOR
 62
  256
  9
$CELTSCALE
 40
1
  9
$DISPSILH
 70
    0
  9
$DIMSCALE
 40
1
  9
$DIMASZ
 40
0.18
  9
$DIMEXO
 40
0.0625
  9
$DIMDLI
 40
0.38
  9
$DIMRND
 40
0
  9
$DIMDLE
 40
0
  9
$DIMEXE
 40
0.18
  9
$DIMTP
 40
0
  9
$DIMTM
 40
0
  9
$DIMTXT
 40
0.18
  9
$DIMCEN
 40
0.09
  9
$DIMTSZ
 40
0
  9
$DIMTOL
 70
    0
  9
$DIMLIM
 70
    0
  9
$DIMTIH
 70
    1
  9
$DIMTOH
 70
    1
  9
$DIMSE1
 70
    0
  9
$DIMSE2
 70
    0
  9
$DIMTAD
 70
    0
  9
$DIMZIN
 70
    0
  9
$DIMBLK
  1

  9
$DIMASO
 70
    1
  9
$DIMSHO
 70
    1
  9
$DIMPOST
  1

  9
$DIMAPOST
  1

  9
$DIMALT
 70
    0
  9
$DIMALTD
 70
    2
  9
$DIMALTF
 40
25.4
  9
$DIMLFAC
 40
1
  9
$DIMTOFL
 70
    0
  9
$DIMTVP
 40
0
  9
$DIMTIX
 70
    0
  9
$DIMSOXD
 70
    0
  9
$DIMSAH
 70
    0
  9
$DIMBLK1
  1

  9
$DIMBLK2
  1

  9
$DIMSTYLE
  2
STANDARD_ACAD
  9
$DIMCLRD
 70
    0
  9
$DIMCLRE
 70
    0
  9
$DIMCLRT
 70
    0
  9
$DIMTFAC
 40
1
  9
$DIMGAP
 40
0.09
  9
$DIMJUST
 70
    0
  9
$DIMSD1
 70
    0
  9
$DIMSD2
 70
    0
  9
$DIMTOLJ
 70
    1
  9
$DIMTZIN
 70
    0
  9
$DIMALTZ
 70
    0
  9
$DIMALTTZ
 70
    0
  9
$DIMUPT
 70
    0
  9
$DIMDEC
 70
    4
  9
$DIMTDEC
 70
    4
  9
$DIMALTU
 70
    2
  9
$DIMALTTD
 70
    2
  9
$DIMTXSTY
  7
standard
  9
$DIMAUNIT
 70
    0
  9
$DIMADEC
 70
    0
  9
$DIMALTRND
 40
0
  9
$DIMAZIN
 70
    0
  9
$DIMDSEP
 70
   44
  9
$DIMATFIT
 70
    3
  9
$DIMFRAC
 70
    0
  9
$DIMLDRBLK
  1
STANDARD
  9
$DIMLUNIT
 70
    2
  9
$DIMLWD
 70
   -2
  9
$DIMLWE
 70
   -2
  9
$DIMTMOVE
 70
    0
  9
$DIMFXL
 40
1
  9
$DIMFXLON
 70
    0
  9
$DIMJOGANG
 40
0.7854
  9
$DIMTFILL
 70
    0
  9
$DIMTFILLCLR
 70
    0
  9
$DIMARCSYM
 70
    0
  9
$DIMLTYPE
  6

  9
$DIMLTEX1
  6

  9
$DIMLTEX2
  6

  9
$LUNITS
 70
    2
  9
$LUPREC
 70
    3
  9
$SKETCHINC
 40
0.1
  9
$FILLETRAD
 40
0
  9
$AUNITS
 70
    0
  9
$AUPREC
 70
    0
  9
$MENU
  1
.
  9
$ELEVATION
 40
0
  9
$PELEVATION
 40
0
  9
$THICKNESS
 40
0
  9
$LIMCHECK
 70
    0
  9
$CHAMFERA
 40
0
  9
$CHAMFERB
 40
0
  9
$CHAMFERC
 40
0
  9
$CHAMFERD
 40
0
  9
$SKPOLY
 70
    0
  9
$USRTIMER
 70
    1
  9
$ANGBASE
 50
0
  9
$ANGDIR
 70
    0
  9
$PDMODE
 70
    0
  9
$PDSIZE
 40
0
  9
$PLINEWID
 40
0
  9
$SPLFRAME
 70
    0
  9
$SPLINETYPE
 70
    6
  9
$SPLINESEGS
 70
    8
  9
$HANDSEED
  5
20000
  9
$SURFTAB1
 70
    6
  9
$SURFTAB2
 70
    6
  9
$SURFTYPE
 70
    6
  9
$SURFU
 70
    6
  9
$SURFV
 70
    6
  9
$UCSBASE
  2

  9
$UCSNAME
  2

  9
$UCSORG
 10
0
 20
0
 30
0
  9
$UCSXDIR
 10
1
 20
0
 30
0
  9
$UCSYDIR
 10
0
 20
1
 30
0
  9
$UCSORTHOREF
  2

  9
$UCSORTHOVIEW
 70
    0
  9
$UCSORGTOP
 10
0
 20
0
 30
0
  9
$UCSORGBOTTOM
 10
0
 20
0
 30
0
  9
$UCSORGLEFT
 10
0
 20
0
 30
0
  9
$UCSORGRIGHT
 10
0
 20
0
 30
0
  9
$UCSORGFRONT
 10
0
 20
0
 30
0
  9
$UCSORGBACK
 10
0
 20
0
 30
0
  9
$PUCSBASE
  2

  9
$PUCSNAME
  2

  9
$PUCSORG
 10
0
 20
0
 30
0
  9
$PUCSXDIR
 10
1
 20
0
 30
0
  9
$PUCSYDIR
 10
0
 20
1
 30
0
  9
$PUCSORTHOREF
  2

  9
$PUCSORTHOVIEW
 70
    0
  9
$PUCSORGTOP
 10
0
 20
0
 30
0
  9
$PUCSORGBOTTOM
 10
0
 20
0
 30
0
  9
$PUCSORGLEFT
 10
0
 20
0
 30
0
  9
$PUCSORGRIGHT
 10
0
 20
0
 30
0
  9
$PUCSORGFRONT
 10
0
 20
0
 30
0
  9
$PUCSORGBACK
 10
0
 20
0
 30
0
  9
$USERI1
 70
    0
  9
$USERI2
 70
    0
  9
$USERI3
 70
    0
  9
$USERI4
 70
    0
  9
$USERI5
 70
    0
  9
$USERR1
 40
0
  9
$USERR2
 40
0
  9
$USERR3
 40
0
  9
$USERR4
 40
0
  9
$USERR5
 40
0
  9
$WORLDVIEW
 70
    1
  9
$SHADEDGE
 70
    3
  9
$SHADEDIF
 70
   70
  9
$TILEMODE
 70
    1
  9
$MAXACTVP
 70
   64
  9
$PINSBASE
 10
0
 20
0
 30
0
  9
$PLIMCHECK
 70
    0
  9
$PEXTMIN
 10
1e+20
 20
1e+20
 30
1e+20
  9
$PEXTMAX
 10
-1e+20
 20
-1e+20
 30
-1e+20
  9
$GRIDMODE
 70
    1
  9
$SNAPSTYLE
 70
    0
  9
$GRIDUNIT
 10
1
 20
1
  9
$PLIMMIN
 10
0
 20
0
  9
$PLIMMAX
 10
12
 20
9
  9
$UNITMODE
 70
    0
  9
$VISRETAIN
 70
    1
  9
$PLINEGEN
 70
    0
  9
$PSLTSCALE
 70
    1
  9
$TREEDEPTH
 70
 3020
  9
$CMLSTYLE
  2
STANDARD
  9
$CMLJUST
 70
    0
  9
$CMLSCALE
 40
1
  9
$PROXYGRAPHICS
 70
    1
  9
$MEASUREMENT
 70
    1
  9
$CELWEIGHT
370
   -1
  9
$ENDCAPS
280
    0
  9
$JOINSTYLE
280
    0
  9
$LWDISPLAY
290
    0
  9
$INSUNITS
 70
    4
  9
$HYPERLINKBASE
  1

  9
$STYLESHEET
  1

  9
$XEDIT
290
    1
  9
$CEPSNTYPE
380
    0
  9
$PSTYLEMODE
290
    1
  9
$EXTNAMES
290
    1
  9
$PSVPSCALE
 40
1
  9
$OLESTARTUP
290
    0
  9
$SORTENTS
280
  127
  9
$INDEXCTL
280
    0
  9
$HIDETEXT
280
    1
  9
$XCLIPFRAME
290
    0
  9
$HALOGAP
280
    0
  9
$OBSCOLOR
 70
  257
  9
$OBSLTYPE
280
    0
  9
$INTERSECTIONDISPLAY
280
    0
  9
$INTERSECTIONCOLOR
 70
  257
  9
$DIMASSOC
280
    1
  9
$PROJECTNAME
  1

  9
$CAMERADISPLAY
290
    0
  9
$LENSLENGTH
 40
50
  9
$CAMERAHEIGHT
 40
0
  9
$STEPSPERSEC
 40
2
  9
$STEPSIZE
 40
50
  9
$3DDWFPREC
 40
2
  9
$PSOLWIDTH
 40
5
  9
$PSOLHEIGHT
 40
80
  9
$LOFTANG1
 40
1.570796326794897
  9
$LOFTANG2
 40
1.570796326794897
  9
$LOFTMAG1
 40
0
  9
$LOFTMAG2
 40
0
  9
$LOFTPARAM
 70
    7
  9
$LOFTNORMALS
280
    1
  9
$LATITUDE
 40
1
  9
$LONGITUDE
 40
1
  9
$NORTHDIRECTION
 40
0
  9
$TIMEZONE
 70
-8000
  9
$LIGHTGLYPHDISPLAY
280
    1
  9
$TILEMODELIGHTSYNCH
280
    1
  9
$SOLIDHIST
280
    1
  9
$SHOWHIST
280
    1
  9
$DWFFRAME
280
    2
  9
$DGNFRAME
280
    0
  9
$REALWORLDSCALE
290
    1
  9
$INTERFERECOLOR
 62
    1
  9
$CSHADOW
280
    0
  9
$SHADOWPLANELOCATION
 40
0
  0
ENDSEC
  0
SECTION
  2
CLASSES
  0
ENDSEC
  0
SECTION
  2
TABLES
  0
TABLE
  2
VPORT
  5
8
330
0
100
AcDbSymbolTable
 70
    1
  0
VPORT
  5
31
330
2
100
AcDbSymbolTableRecord
100
AcDbViewportTableRecord
  2
*ACTIVE
 70
    0
 10
0
 20
0
 11
1
 21
1
 12
2370.03782184613
 22
860.5281047550243
 13
0
 23
0
 14
10
 24
10
 15
1
 25
1
 16
0
 26
0
 36
1
 17
0
 27
0
 37
0
 40
4962.37873742064
 41
2.054913294797688
 42
50
 43
0
 44
0
 50
0
 51
0
 71
    0
 72
  100
 73
    1
 74
    3
 75
    0
 76
    1
 77
    0
 78
    0
281
    0
 65
    1
110
0
120
0
130
0
111
1
121
0
131
0
112
0
122
1
132
0
 79
    0
146
0
348
10020
 60
    3
 61
    5
292
1
282
    1
141
0
142
0
 63
  250
421
3358443
  0
ENDTAB
  0
TABLE
  2
LTYPE
  5
5
330
0
100
AcDbSymbolTable
 70
    4
  0
LTYPE
  5
14
330
5
100
AcDbSymbolTableRecord
100
AcDbLinetypeTableRecord
  2
ByBlock
 70
    0
  3

 72
   65
 73
    0
 40
0
  0
LTYPE
  5
15
330
5
100
AcDbSymbolTableRecord
100
AcDbLinetypeTableRecord
  2
ByLayer
 70
    0
  3

 72
   65
 73
    0
 40
0
  0
LTYPE
  5
16
330
5
100
AcDbSymbolTableRecord
100
AcDbLinetypeTableRecord
  2
Continuous
 70
    0
  3
Solid line
 72
   65
 73
    0
 40
0
  0
LTYPE
  5
32
330
5
100
AcDbSymbolTableRecord
100
AcDbLinetypeTableRecord
  2
DOT
 70
    0
  3
Dot . . . . . . . . . . . . . . . . . . . . . .
 72
   65
 73
    2
 40
6.35
 49
0
 74
    0
 49
-6.35
 74
    0
  0
LTYPE
  5
33
330
5
100
AcDbSymbolTableRecord
100
AcDbLinetypeTableRecord
  2
DOTTINY
 70
    0
  3
Dot (.15x) .....................................
 72
   65
 73
    2
 40
0.9525
 49
0
 74
    0
 49
-0.9525
 74
    0
  0
LTYPE
  5
34
330
5
100
AcDbSymbolTableRecord
100
AcDbLinetypeTableRecord
  2
DOT2
 70
    0
  3
Dot (.5x) .....................................
 72
   65
 73
    2
 40
3.175
 49
0
 74
    0
 49
-3.175
 74
    0
  0
LTYPE
  5
35
330
5
100
AcDbSymbolTableRecord
100
AcDbLinetypeTableRecord
  2
DOTX2
 70
    0
  3
Dot (2x) .  .  .  .  .  .  .  .  .  .  .  .  .
 72
   65
 73
    2
 40
12.7
 49
0
 74
    0
 49
-12.7
 74
    0
  0
LTYPE
  5
36
330
5
100
AcDbSymbolTableRecord
100
AcDbLinetypeTableRecord
  2
DASHED
 70
    0
  3
Dashed _ _ _ _ _ _ _ _ _ _ _ _ _ _ _ _ _
 72
   65
 73
    2
 40
19.05
 49
12.7
 74
    0
 49
-6.35
 74
    0
  0
LTYPE
  5
37
330
5
100
AcDbSymbolTableRecord
100
AcDbLinetypeTableRecord
  2
DASHEDTINY
 70
    0
  3
Dashed (.15x) _ _ _ _ _ _ _ _ _ _ _ _ _ _ _ _ _
 72
   65
 73
    2
 40
2.8575
 49
1.905
 74
    0
 49
-0.9525
 74
    0
  0
LTYPE
  5
38
330
5
100
AcDbSymbolTableRecord
100
AcDbLinetypeTableRecord
  2
DASHED2
 70
    0
  3
Dashed (.5x) _ _ _ _ _ _ _ _ _ _ _ _ _ _ _ _ _
 72
   65
 73
    2
 40
9.524999999999999
 49
6.35
 74
    0
 49
-3.175
 74
    0
  0
LTYPE
  5
39
330
5
100
AcDbSymbolTableRecord
100
AcDbLinetypeTableRecord
  2
DASHEDX2
 70
    0
  3
Dashed (2x) ____  ____  ____  ____  ____  ___
 72
   65
 73
    2
 40
38.09999999999999
 49
25.4
 74
    0
 49
-12.7
 74
    0
  0
LTYPE
  5
3A
330
5
100
AcDbSymbolTableRecord
100
AcDbLinetypeTableRecord
  2
DASHDOT
 70
    0
  3
Dash dot __ . __ . __ . __ . __ . __ . __ . __
 72
   65
 73
    4
 40
25.4
 49
12.7
 74
    0
 49
-6.35
 74
    0
 49
0
 74
    0
 49
-6.35
 74
    0
  0
LTYPE
  5
3B
330
5
100
AcDbSymbolTableRecord
100
AcDbLinetypeTableRecord
  2
DASHDOTTINY
 70
    0
  3
Dash dot (.15x) _._._._._._._._._._._._._._._.
 72
   65
 73
    4
 40
3.81
 49
1.905
 74
    0
 49
-0.9525
 74
    0
 49
0
 74
    0
 49
-0.9525
 74
    0
  0
LTYPE
  5
3C
330
5
100
AcDbSymbolTableRecord
100
AcDbLinetypeTableRecord
  2
DASHDOT2
 70
    0
  3
Dash dot (.5x) _._._._._._._._._._._._._._._.
 72
   65
 73
    4
 40
12.7
 49
6.35
 74
    0
 49
-3.175
 74
    0
 49
0
 74
    0
 49
-3.175
 74
    0
  0
LTYPE
  5
3D
330
5
100
AcDbSymbolTableRecord
100
AcDbLinetypeTableRecord
  2
DASHDOTX2
 70
    0
  3
Dash dot (2x) ____  .  ____  .  ____  .  ___
 72
   65
 73
    4
 40
50.8
 49
25.4
 74
    0
 49
-12.7
 74
    0
 49
0
 74
    0
 49
-12.7
 74
    0
  0
LTYPE
  5
3E
330
5
100
AcDbSymbolTableRecord
100
AcDbLinetypeTableRecord
  2
DIVIDE
 70
    0
  3
Divide ____ . . ____ . . ____ . . ____ . . ____
 72
   65
 73
    6
 40
31.75
 49
12.7
 74
    0
 49
-6.35
 74
    0
 49
0
 74
    0
 49
-6.35
 74
    0
 49
0
 74
    0
 49
-6.35
 74
    0
  0
LTYPE
  5
3F
330
5
100
AcDbSymbolTableRecord
100
AcDbLinetypeTableRecord
  2
DIVIDETINY
 70
    0
  3
Divide (.15x) __..__..__..__..__..__..__..__.._
 72
   65
 73
    6
 40
4.7625
 49
1.905
 74
    0
 49
-0.9525
 74
    0
 49
0
 74
    0
 49
-0.9525
 74
    0
 49
0
 74
    0
 49
-0.9525
 74
    0
  0
LTYPE
  5
40
330
5
100
AcDbSymbolTableRecord
100
AcDbLinetypeTableRecord
  2
DIVIDE2
 70
    0
  3
Divide (.5x) __..__..__..__..__..__..__..__.._
 72
   65
 73
    6
 40
15.875
 49
6.35
 74
    0
 49
-3.175
 74
    0
 49
0
 74
    0
 49
-3.175
 74
    0
 49
0
 74
    0
 49
-3.175
 74
    0
  0
LTYPE
  5
41
330
5
100
AcDbSymbolTableRecord
100
AcDbLinetypeTableRecord
  2
DIVIDEX2
 70
    0
  3
Divide (2x) ________  .  .  ________  .  .  _
 72
   65
 73
    6
 40
63.5
 49
25.4
 74
    0
 49
-12.7
 74
    0
 49
0
 74
    0
 49
-12.7
 74
    0
 49
0
 74
    0
 49
-12.7
 74
    0
  0
LTYPE
  5
42
330
5
100
AcDbSymbolTableRecord
100
AcDbLinetypeTableRecord
  2
BORDER
 70
    0
  3
Border __ __ . __ __ . __ __ . __ __ . __ __ .
 72
   65
 73
    6
 40
44.45
 49
12.7
 74
    0
 49
-6.35
 74
    0
 49
12.7
 74
    0
 49
-6.35
 74
    0
 49
0
 74
    0
 49
-6.35
 74
    0
  0
LTYPE
  5
43
330
5
100
AcDbSymbolTableRecord
100
AcDbLinetypeTableRecord
  2
BORDERTINY
 70
    0
  3
Border (.15x) __.__.__.__.__.__.__.__.__.__.__.
 72
   65
 73
    6
 40
6.6675
 49
1.905
 74
    0
 49
-0.9525
 74
    0
 49
1.905
 74
    0
 49
-0.9525
 74
    0
 49
0
 74
    0
 49
-0.9525
 74
    0
  0
LTYPE
  5
44
330
5
100
AcDbSymbolTableRecord
100
AcDbLinetypeTableRecord
  2
BORDER2
 70
    0
  3
Border (.5x) __.__.__.__.__.__.__.__.__.__.__.
 72
   65
 73
    6
 40
22.225
 49
6.35
 74
    0
 49
-3.175
 74
    0
 49
6.35
 74
    0
 49
-3.175
 74
    0
 49
0
 74
    0
 49
-3.175
 74
    0
  0
LTYPE
  5
45
330
5
100
AcDbSymbolTableRecord
100
AcDbLinetypeTableRecord
  2
BORDERX2
 70
    0
  3
Border (2x) ____  ____  .  ____  ____  .  ___
 72
   65
 73
    6
 40
88.89999999999999
 49
25.4
 74
    0
 49
-12.7
 74
    0
 49
25.4
 74
    0
 49
-12.7
 74
    0
 49
0
 74
    0
 49
-12.7
 74
    0
  0
LTYPE
  5
46
330
5
100
AcDbSymbolTableRecord
100
AcDbLinetypeTableRecord
  2
CENTER
 70
    0
  3
Center ____ _ ____ _ ____ _ ____ _ ____ _ ____
 72
   65
 73
    4
 40
50.8
 49
31.75
 74
    0
 49
-6.35
 74
    0
 49
6.35
 74
    0
 49
-6.35
 74
    0
  0
LTYPE
  5
47
330
5
100
AcDbSymbolTableRecord
100
AcDbLinetypeTableRecord
  2
CENTERTINY
 70
    0
  3
Center (.15x) ___ _ ___ _ ___ _ ___ _ ___ _ ___
 72
   65
 73
    4
 40
7.619999999999999
 49
4.7625
 74
    0
 49
-0.9525
 74
    0
 49
0.9525
 74
    0
 49
-0.9525
 74
    0
  0
LTYPE
  5
48
330
5
100
AcDbSymbolTableRecord
100
AcDbLinetypeTableRecord
  2
CENTER2
 70
    0
  3
Center (.5x) ___ _ ___ _ ___ _ ___ _ ___ _ ___
 72
   65
 73
    4
 40
28.575
 49
19.05
 74
    0
 49
-3.175
 74
    0
 49
3.175
 74
    0
 49
-3.175
 74
    0
  0
LTYPE
  5
49
330
5
100
AcDbSymbolTableRecord
100
AcDbLinetypeTableRecord
  2
CENTERX2
 70
    0
  3
Center (2x) ________  __  ________  __  _____
 72
   65
 73
    4
 40
101.6
 49
63.5
 74
    0
 49
-12.7
 74
    0
 49
12.7
 74
    0
 49
-12.7
 74
    0
  0
ENDTAB
  0
TABLE
  2
LAYER
  5
2
330
0
100
AcDbSymbolTable
 70
    1
  0
LAYER
  5
10
330
2
100
AcDbSymbolTableRecord
100
AcDbLayerTableRecord
  2
0
 70
    0
 62
    7
  6
CONTINUOUS
370
   -3
390
F
  0
LAYER
  5
4A
330
2
100
AcDbSymbolTableRecord
100
AcDbLayerTableRecord
  2
0_SHEET_SPRUCEPLY_2440X122
 70
    0
 62
    1
  6
CONTINUOUS
370
   -3
390
F
  0
LAYER
  5
4B
330
2
100
AcDbSymbolTableRecord
100
AcDbLayerTableRecord
  2
1_ANYTOOL_1MMDEEP_LABELS_S
 70
    0
 62
    2
  6
CONTINUOUS
370
   -3
390
F
  0
LAYER
  5
4C
330
2
100
AcDbSymbolTableRecord
100
AcDbLayerTableRecord
  2
3_ANYTOOL_CUTTHROUGH_INSID
 70
    0
 62
    4
  6
CONTINUOUS
370
   -3
390
F
  0
LAYER
  5
4D
330
2
100
AcDbSymbolTableRecord
100
AcDbLayerTableRecord
  2
4_ANYTOOL_CUTTHROUGH_OUTSI
 70
    0
 62
    5
  6
CONTINUOUS
370
   -3
390
F
  0
LAYER
  5
4E
330
2
100
AcDbSymbolTableRecord
100
AcDbLayerTableRecord
  2
5_ANYTOOL_HALF_MILL_9MM_IN
 70
    0
 62
    3
  6
CONTINUOUS
370
   -3
390
F
  0
LAYER
  5
4F
330
2
100
AcDbSymbolTableRecord
100
AcDbLayerTableRecord
  2
DONOTCUT
 70
    0
 62
   18
  6
CONTINUOUS
370
   -3
390
F
  0
ENDTAB
  0
TABLE
  2
STYLE
  5
3
330
0
100
AcDbSymbolTable
 70
    3
  0
STYLE
  5
50
330
2
100
AcDbSymbolTableRecord
100
AcDbTextStyleTableRecord
  2
Standard
 70
    0
 40
0
 41
1
 50
0
 71
    0
 42
1
  3
txt
  4

  0
ENDTAB
  0
TABLE
  2
VIEW
  5
6
330
0
100
AcDbSymbolTable
 70
    0
  0
ENDTAB
  0
TABLE
  2
UCS
  5
7
330
0
100
AcDbSymbolTable
 70
    0
  0
ENDTAB
  0
TABLE
  2
APPID
  5
9
330
0
100
AcDbSymbolTable
 70
    1
  0
APPID
  5
12
330
9
100
AcDbSymbolTableRecord
100
AcDbRegAppTableRecord
  2
ACAD
 70
    0
  0
APPID
  5
51
330
9
100
AcDbSymbolTableRecord
100
AcDbRegAppTableRecord
  2
LibreCad
 70
    0
  0
ENDTAB
  0
TABLE
  2
DIMSTYLE
  5
A
330
0
100
AcDbSymbolTable
 70
    1
100
AcDbDimStyleTable
 71
    1
  0
DIMSTYLE
105
52
330
A
100
AcDbSymbolTableRecord
100
AcDbDimStyleTableRecord
  2
Standard
 70
    0
 40
1
 41
0.18
 42
0.0625
 43
0.38
 44
0.18
 45
0
 46
0
 47
0
 48
0
 49
1
140
0.18
141
0.09
142
0
143
25.4
144
1
145
0
146
1
147
0.09
148
0
 71
    0
 72
    0
 73
    1
 74
    1
 75
    0
 76
    0
 77
    0
 78
    0
 79
    0
170
    0
171
    2
172
    0
173
    0
174
    0
175
    0
176
    0
177
    0
178
    0
179
    0
271
    4
272
    4
273
    2
274
    2
275
    0
276
    0
277
    2
278
   44
279
    0
280
    0
281
    0
282
    0
283
    1
284
    0
285
    0
286
    0
288
    0
289
    3
340
standard
341

371
   -2
372
   -2
  0
ENDTAB
  0
TABLE
  2
BLOCK_RECORD
  5
1
330
0
100
AcDbSymbolTable
 70
    2
  0
BLOCK_RECORD
  5
1F
330
1
100
AcDbSymbolTableRecord
100
AcDbBlockTableRecord
  2
*Model_Space
 70
    0
280
    1
281
    0
  0
BLOCK_RECORD
  5
1E
330
1
100
AcDbSymbolTableRecord
100
AcDbBlockTableRecord
  2
*Paper_Space
 70
    0
280
    1
281
    0
  0
ENDTAB
  0
ENDSEC
  0
SECTION
  2
BLOCKS
  0
BLOCK
  5
20
330
1F
100
AcDbEntity
  8
0
100
AcDbBlockBegin
  2
*Model_Space
 70
    0
 10
0
 20
0
 30
0
  3
*Model_Space
  1

  0
ENDBLK
  5
21
330
1F
100
AcDbEntity
  8
0
100
AcDbBlockEnd
  0
BLOCK
  5
1C
330
1B
100
AcDbEntity
  8
0
100
AcDbBlockBegin
  2
*Paper_Space
 70
    0
 10
0
 20
0
 30
0
  3
*Paper_Space
  1

  0
ENDBLK
  5
1D
330
1F
100
AcDbEntity
  8
0
100
AcDbBlockEnd
  0
ENDSEC
  0
SECTION
  2
ENTITIES
  0
LWPOLYLINE
  5
53
100
AcDbEntity
  8
5_ANYTOOL_HALF_MILL_9MM_IN
  6
ByLayer
 62
  256
370
   -1
100
AcDbPolyline
 90
  182
 70
    1
 43
0
 10
274.2476981609725
 20
-231.3142072106971
 10
274.1903996684268
 20
-231.513666362493
 10
274.14003324652
 20
-231.714987732513
 10
274.0966591489923
 20
-231.91793047849
 10
274.0603292645683
 20
-232.1222518184929
 10
274.0310870549802
 20
-232.327707321366
 10
274.008967502923
 20
-232.534051199149
 10
273.993997070138
 20
-232.741036601109
 10
273.9861936659072
 20
-232.9484159090559
 10
273.985566625488
 20
-233.1559410335651
 10
273.9921166990025
 20
-233.36336371077
 10
274.0058360505573
 20
-233.570435799365
 10
274.0267082676
 20
-233.7769095774529
 10
274.0547083805213
 20
-233.9825380389041
 10
274.0898028925876
 20
-234.187075188843
 10
274.1319498199591
 20
-234.390276337941
 10
274.1810987419594
 20
-234.5918983951369
 10
274.2371908613713
 20
-234.7917001584481
 10
274.300159074759
 20
-234.989442603525
 10
274.3699280527799
 20
-235.184889169595
 10
274.4464143302685
 20
-235.3778060424611
 10
274.5295264061497
 20
-235.567962434221
 10
274.6191648527893
 20
-235.755130859352
 10
274.7152224350502
 20
-235.9390874068631
 10
274.8175842385172
 20
-236.1196120081529
 10
274.9261278070189
 20
-236.2964887002861
 10
275.0407232890502
 20
-236.469505884344
 10
275.1612335931786
 20
-236.6384565785729
 10
275.2875145520302
 20
-236.8031386659859
 10
275.4194150947369
 20
-236.9633551361651
 10
275.5567774276933
 20
-237.1189143209419
 10
275.6994372232875
 20
-237.2696301236981
 10
275.8472238165705
 20
-237.4153222419829
 10
275.9999604093027
 20
-237.5558163832229
 10
276.1574642815613
 20
-237.69094447322
 10
276.3195470102728
 20
-237.820544857226
 10
276.4860146946594
 20
-237.9444624933269
 10
276.6566681881814
 20
-238.0625491379251
 10
276.8313033367667
 20
-238.1746635230779
 10
277.0097112230869
 20
-238.280671525506
 10
277.1916784164569
 20
-238.380446327038
 10
277.3769872281482
 20
-238.473868566331
 10
277.5654159718179
 20
-238.5608264816569
 10
277.7567392287674
 20
-238.64121604461
 10
277.9507281175465
 20
-238.71494108455
 10
278.1471505677764
 20
-238.7819134036581
 10
278.345771597822
 20
-238.842052882447
 10
278.5463535958334
 20
-238.8952875756049
 10
278.7486566040679
 20
-238.941553798069
 10
278.9524386059202
 20
-238.9807962012101
 10
279.1574558154389
 20
-239.012967839047
 10
279.3634629690132
 20
-239.0380302244059
 10
279.5702136187174
 20
-239.0559533749681
 10
279.7774604272199
 20
-239.0667158491331
 10
279.9849554635875
 20
-239.0703047716729
 10
319.1895470313975
 20
-239.0703047716811
 10
319.3970420677579
 20
-239.066715849141
 10
319.6042888762604
 20
-239.0559533749761
 10
319.8110395259719
 20
-239.0380302244139
 10
320.0170466795389
 20
-239.0129678390549
 10
320.2220638890576
 20
-238.9807962012189
 10
320.4258458909098
 20
-238.9415537980781
 10
320.6281488991517
 20
-238.895287575614
 10
320.828730897163
 20
-238.8420528824561
 10
321.0273519272014
 20
-238.7819134036681
 10
321.2237743774385
 20
-238.7149410845591
 10
321.4177632662104
 20
-238.64121604462
 10
321.6090865231599
 20
-238.5608264816669
 10
321.7975152668296
 20
-238.473868566341
 10
321.9828240785209
 20
-238.380446327049
 10
322.1647912718909
 20
-238.280671525516
 10
322.3431991582111
 20
-238.1746635230879
 10
322.5178343067964
 20
-238.0625491379351
 10
322.6884878003184
 20
-237.9444624933381
 10
322.8549554847123
 20
-237.8205448572371
 10
323.0170382134165
 20
-237.690944473231
 10
323.1745420856823
 20
-237.5558163832341
 10
323.3272786784073
 20
-237.4153222419941
 10
323.4750652716903
 20
-237.2696301237081
 10
323.6177250672918
 20
-237.1189143209531
 10
323.7550874002409
 20
-236.9633551361751
 10
323.8869879429476
 20
-236.8031386659959
 10
324.0132689017919
 20
-236.6384565785841
 10
324.1337792059276
 20
-236.4695058843549
 10
324.2483746879589
 20
-236.2964887002961
 10
324.3569182564606
 20
-236.119612008164
 10
324.4592800599276
 20
-235.939087406874
 10
324.5553376421885
 20
-235.7551308593629
 10
324.6449760888281
 20
-235.567962434231
 10
324.7280881647093
 20
-235.377806042472
 10
324.8045744422125
 20
-235.184889169605
 10
324.8743434202188
 20
-234.989442603536
 10
324.9373116336064
 20
-234.7917001584581
 10
324.9934037530184
 20
-234.5918983951469
 10
325.0425526750187
 20
-234.390276337951
 10
325.0846996023974
 20
-234.187075188853
 10
325.1197941144565
 20
-233.9825380389141
 10
325.1477942273923
 20
-233.7769095774629
 10
325.1686664444278
 20
-233.570435799375
 10
325.1823857959826
 20
-233.36336371078
 10
325.1889358694898
 20
-233.1559410335749
 10
325.1883088290706
 20
-232.9484159090659
 10
325.1805054248398
 20
-232.741036601119
 10
325.165534992062
 20
-232.5340511991581
 10
325.1434154399903
 20
-232.327707321376
 10
325.1141732304095
 20
-232.122251818502
 10
325.0778433459927
 20
-231.9179304785
 10
325.0344692484505
 20
-231.714987732523
 10
324.984102826551
 20
-231.513666362503
 10
324.9268043340126
 20
-231.3142072107071
 10
324.6407612624826
 20
-230.4348177600159
 10
324.3242099388881
 20
-229.5659439462379
 10
323.977535835249
 20
-228.708643817572
 10
323.601161104838
 20
-227.8639613286721
 10
323.1955440680831
 20
-227.0329250693969
 10
322.7611786544294
 20
-226.2165470122679
 10
322.2985938009297
 20
-225.415821280164
 10
321.808352808097
 20
-224.631722935761
 10
321.2910526539999
 20
-223.8652067941689
 10
320.7473232673001
 20
-223.117206260235
 10
320.1778267600894
 20
-222.3886321919099
 10
319.5832566218014
 20
-221.6803717910821
 10
318.9643368745092
 20
-220.9932875232009
 10
318.3218211914791
 20
-220.3282160670419
 10
317.6564919792509
 20
-219.6859672958569
 10
316.969159424938
 20
-219.067323291174
 10
316.2606605096807
 20
-218.473037390439
 10
315.5318579893501
 20
-217.903833269658
 10
314.7836393440521
 20
-217.360404062159
 10
314.0169156973207
 20
-216.8434115145501
 10
313.2326207066799
 20
-216.3534851808911
 10
312.4317094267171
 20
-215.891221656073
 10
311.6151571460578
 20
-215.4571838493309
 10
310.7839581997177
 20
-215.0519002987751
 10
309.939124758348
 20
-214.675864527775
 10
309.0816855956
 20
-214.329534443988
 10
308.2126848354601
 20
-214.0133317817549
 10
307.3331806806891
 20
-213.727641588541
 10
306.4442441243373
 20
-213.4728117560551
 10
305.546957645478
 20
-213.2491525966161
 10
304.6424138911025
 20
-213.056936465274
 10
303.7317143455293
 20
-212.8963974281619
 10
302.8159679891614
 20
-212.767730977464
 10
301.8962899479884
 20
-212.671093793364
 10
300.9738001357618
 20
-212.6066035532469
 10
300.049621890139
 20
-212.5743387884049
 10
299.1248806048388
 20
-212.574338788404
 10
298.2007023592087
 20
-212.6066035532469
 10
297.2782125469821
 20
-212.671093793364
 10
296.3585345058236
 20
-212.767730977464
 10
295.4427881494485
 20
-212.8963974281619
 10
294.532088603868
 20
-213.056936465274
 10
293.6275448494926
 20
-213.2491525966161
 10
292.7302583706332
 20
-213.4728117560551
 10
291.8413218142814
 20
-213.727641588541
 10
290.9618176595177
 20
-214.0133317817549
 10
290.0928168993705
 20
-214.329534443988
 10
289.2353777366297
 20
-214.6758645277739
 10
288.3905442952528
 20
-215.0519002987751
 10
287.55934534892
 20
-215.4571838493309
 10
286.7427930682388
 20
-215.891221656073
 10
285.9418817882906
 20
-216.3534851808911
 10
285.1575867976499
 20
-216.8434115145501
 10
284.3908631509184
 20
-217.360404062159
 10
283.6426445056204
 20
-217.903833269658
 10
282.9138419852898
 20
-218.473037390439
 10
282.2053430700398
 20
-219.067323291174
 10
281.5180105157197
 20
-219.6859672958569
 10
280.8526813034914
 20
-220.3282160670419
 10
280.2101656204613
 20
-220.9932875232009
 10
279.5912458731764
 20
-221.6803717910821
 10
278.9966757348666
 20
-222.3886321919099
 10
278.4271792276777
 20
-223.117206260235
 10
277.8834498409633
 20
-223.8652067941689
 10
277.3661496868808
 20
-224.631722935761
 10
276.8759086940481
 20
-225.415821280164
 10
276.4133238405484
 20
-226.2165470122679
 10
275.9789584268874
 20
-227.0329250693969
 10
275.5733413901326
 20
-227.8639613286721
 10
275.1969666597288
 20
-228.7086438175711
 10
274.8502925560897
 20
-229.5659439462379
 10
274.533741232488
 20
-230.4348177600159
  0
LWPOLYLINE
  5
54
100
AcDbEntity
  8
5_ANYTOOL_HALF_MILL_9MM_IN
  6
ByLayer
 62
  256
370
   -1
100
AcDbPolyline
 90
  182
 70
    1
 43
0
 10
274.2476981609725
 20
-358.8264023325039
 10
274.1903996684268
 20
-358.6269431807079
 10
274.14003324652
 20
-358.425621810688
 10
274.0966591489923
 20
-358.222679064711
 10
274.0603292645683
 20
-358.0183577247089
 10
274.0310870549802
 20
-357.812902221835
 10
274.008967502923
 20
-357.6065583440529
 10
273.993997070138
 20
-357.3995729420919
 10
273.9861936659072
 20
-357.192193634146
 10
273.985566625488
 20
-356.984668509637
 10
273.9921166990025
 20
-356.7772458324309
 10
274.0058360505573
 20
-356.5701737438369
 10
274.0267082676
 20
-356.3636999657481
 10
274.0547083805213
 20
-356.1580715042981
 10
274.0898028925876
 20
-355.9535343543589
 10
274.1319498199591
 20
-355.7503332052611
 10
274.1810987419594
 20
-355.548711148065
 10
274.2371908613713
 20
-355.3489093847529
 10
274.300159074759
 20
-355.1511669396759
 10
274.3699280527799
 20
-354.9557203736069
 10
274.4464143302685
 20
-354.7628035007399
 10
274.5295264061497
 20
-354.5726471089811
 10
274.6191648527893
 20
-354.385478683849
 10
274.7152224350502
 20
-354.2015221363381
 10
274.8175842385172
 20
-354.0209975350481
 10
274.9261278070189
 20
-353.844120842916
 10
275.0407232890502
 20
-353.671103658857
 10
275.1612335931786
 20
-353.502152964629
 10
275.2875145520302
 20
-353.337470877216
 10
275.4194150947369
 20
-353.177254407037
 10
275.5567774276933
 20
-353.021695222259
 10
275.6994372232875
 20
-352.870979419504
 10
275.8472238165705
 20
-352.7252873012189
 10
275.9999604093027
 20
-352.584793159979
 10
276.1574642815613
 20
-352.4496650699809
 10
276.3195470102728
 20
-352.320064685975
 10
276.4860146946594
 20
-352.1961470498741
 10
276.6566681881814
 20
-352.078060405277
 10
276.8313033367667
 20
-351.965946020124
 10
277.0097112230869
 20
-351.8599380176961
 10
277.1916784164569
 20
-351.7601632161629
 10
277.3769872281482
 20
-351.66674097687
 10
277.5654159718179
 20
-351.579783061544
 10
277.7567392287674
 20
-351.4993934985921
 10
277.9507281175465
 20
-351.4256684586519
 10
278.1471505677764
 20
-351.3586961395431
 10
278.345771597822
 20
-351.2985566607549
 10
278.5463535958334
 20
-351.245321967597
 10
278.7486566040679
 20
-351.199055745132
 10
278.9524386059202
 20
-351.1598133419909
 10
279.1574558154389
 20
-351.1276417041549
 10
279.3634629690132
 20
-351.102579318796
 10
279.5702136187174
 20
-351.084656168234
 10
279.7774604272199
 20
-351.0738936940679
 10
279.9849554635875
 20
-351.0703047715281
 10
319.1895470313975
 20
-351.0703047715349
 10
319.3970420677579
 20
-351.073893694075
 10
319.6042888762604
 20
-351.0846561682399
 10
319.8110395259719
 20
-351.1025793188021
 10
320.0170466795389
 20
-351.1276417041611
 10
320.2220638890576
 20
-351.1598133419971
 10
320.4258458909098
 20
-351.1990557451379
 10
320.6281488991517
 20
-351.245321967602
 10
320.828730897163
 20
-351.2985566607599
 10
321.0273519272014
 20
-351.3586961395481
 10
321.2237743774385
 20
-351.4256684586569
 10
321.4177632662104
 20
-351.499393498596
 10
321.6090865231599
 20
-351.5797830615479
 10
321.7975152668296
 20
-351.666740976875
 10
321.9828240785209
 20
-351.760163216167
 10
322.1647912718909
 20
-351.8599380177
 10
322.3431991582111
 20
-351.9659460201281
 10
322.5178343067964
 20
-352.0780604052809
 10
322.6884878003184
 20
-352.1961470498779
 10
322.8549554847123
 20
-352.3200646859791
 10
323.0170382134165
 20
-352.449665069985
 10
323.1745420856823
 20
-352.5847931599819
 10
323.3272786784073
 20
-352.7252873012219
 10
323.4750652716903
 20
-352.8709794195081
 10
323.6177250672918
 20
-353.0216952222629
 10
323.7550874002409
 20
-353.1772544070409
 10
323.8869879429476
 20
-353.3374708772201
 10
324.0132689017919
 20
-353.5021529646319
 10
324.1337792059276
 20
-353.6711036588611
 10
324.2483746879589
 20
-353.8441208429199
 10
324.3569182564606
 20
-354.0209975350519
 10
324.4592800599276
 20
-354.201522136342
 10
324.5553376421885
 20
-354.3854786838531
 10
324.6449760888281
 20
-354.5726471089849
 10
324.7280881647093
 20
-354.762803500744
 10
324.8045744422125
 20
-354.955720373611
 10
324.8743434202188
 20
-355.15116693968
 10
324.9373116336064
 20
-355.3489093847579
 10
324.9934037530184
 20
-355.5487111480691
 10
325.0425526750187
 20
-355.750333205265
 10
325.0846996023974
 20
-355.953534354363
 10
325.1197941144565
 20
-356.1580715043019
 10
325.1477942273923
 20
-356.3636999657531
 10
325.1686664444278
 20
-356.570173743841
 10
325.1823857959826
 20
-356.7772458324359
 10
325.1889358694898
 20
-356.9846685096411
 10
325.1883088290706
 20
-357.19219363415
 10
325.1805054248398
 20
-357.3995729420969
 10
325.165534992062
 20
-357.6065583440579
 10
325.1434154399903
 20
-357.81290222184
 10
325.1141732304095
 20
-358.018357724714
 10
325.0778433459927
 20
-358.222679064716
 10
325.0344692484505
 20
-358.425621810693
 10
324.984102826551
 20
-358.6269431807129
 10
324.9268043340126
 20
-358.8264023325089
 10
324.6407612624826
 20
-359.7057917831851
 10
324.3242099388881
 20
-360.5746655969631
 10
323.977535835249
 20
-361.4319657256301
 10
323.601161104838
 20
-362.2766482145289
 10
323.1955440680831
 20
-363.1076844738041
 10
322.7611786544294
 20
-363.924062530934
 10
322.2985938009297
 20
-364.724788263037
 10
321.808352808097
 20
-365.50888660744
 10
321.2910526539999
 20
-366.2754027490321
 10
320.7473232673001
 20
-367.0234032829669
 10
320.1778267600894
 20
-367.7519773512911
 10
319.5832566218014
 20
-368.4602377521201
 10
318.9643368745092
 20
-369.14732202
 10
318.3218211914791
 20
-369.8123934761591
 10
317.6564919792509
 20
-370.4546422473441
 10
316.969159424938
 20
-371.0732862520269
 10
316.2606605096807
 20
-371.667572152762
 10
315.5318579893501
 20
-372.2367762735439
 10
314.7836393440521
 20
-372.780205481042
 10
314.0169156973207
 20
-373.297198028652
 10
313.2326207066799
 20
-373.787124362311
 10
312.4317094267171
 20
-374.249387887128
 10
311.6151571460578
 20
-374.68342569387
 10
310.7839581997177
 20
-375.088709244427
 10
309.939124758348
 20
-375.4647450154271
 10
309.0816855956
 20
-375.811075099213
 10
308.2126848354601
 20
-376.1272777614461
 10
307.3331806806891
 20
-376.41296795466
 10
306.4442441243373
 20
-376.6677977871459
 10
305.546957645478
 20
-376.891456946586
 10
304.6424138911025
 20
-377.0836730779281
 10
303.7317143455293
 20
-377.24421211504
 10
302.8159679891614
 20
-377.372878565737
 10
301.8962899479884
 20
-377.469515749837
 10
300.9738001357618
 20
-377.534005989954
 10
300.049621890139
 20
-377.566270754797
 10
299.1248806048388
 20
-377.566270754797
 10
298.2007023592087
 20
-377.5340059899549
 10
297.2782125469821
 20
-377.469515749837
 10
296.3585345058236
 20
-377.372878565737
 10
295.4427881494485
 20
-377.24421211504
 10
294.532088603868
 20
-377.0836730779281
 10
293.6275448494926
 20
-376.891456946586
 10
292.7302583706332
 20
-376.6677977871459
 10
291.8413218142814
 20
-376.41296795466
 10
290.9618176595177
 20
-376.1272777614461
 10
290.0928168993705
 20
-375.811075099213
 10
289.2353777366297
 20
-375.4647450154271
 10
288.3905442952528
 20
-375.088709244427
 10
287.55934534892
 20
-374.68342569387
 10
286.7427930682388
 20
-374.249387887128
 10
285.9418817882906
 20
-373.787124362311
 10
285.1575867976499
 20
-373.297198028652
 10
284.3908631509184
 20
-372.780205481042
 10
283.6426445056204
 20
-372.2367762735439
 10
282.9138419852898
 20
-371.667572152762
 10
282.2053430700398
 20
-371.0732862520269
 10
281.5180105157197
 20
-370.4546422473441
 10
280.8526813034914
 20
-369.8123934761591
 10
280.2101656204613
 20
-369.14732202
 10
279.5912458731764
 20
-368.4602377521201
 10
278.9966757348666
 20
-367.7519773512911
 10
278.4271792276777
 20
-367.0234032829669
 10
277.8834498409633
 20
-366.2754027490321
 10
277.3661496868808
 20
-365.50888660744
 10
276.8759086940481
 20
-364.724788263037
 10
276.4133238405484
 20
-363.924062530934
 10
275.9789584268874
 20
-363.1076844738041
 10
275.5733413901326
 20
-362.2766482145289
 10
275.1969666597288
 20
-361.4319657256301
 10
274.8502925560897
 20
-360.5746655969631
 10
274.533741232488
 20
-359.7057917831851
  0
LWPOLYLINE
  5
55
100
AcDbEntity
  8
4_ANYTOOL_CUTTHROUGH_OUTSI
  6
ByLayer
 62
  256
370
   -1
100
AcDbPolyline
 90
   21
 70
    1
 43
0
 10
326.451212282409
 20
-351.0703047765271
 10
338.5872512467686
 20
-351.0703047716081
 42
0.4142135623746268
 10
344.5872512467977
 20
-345.0703047716049
 10
327.6880027869454
 20
-296.7867377434968
 42
-0.1460887458255115
 10
327.6880027869483
 20
-293.3538717997192
 10
344.5872512467971
 20
-245.070304771612
 42
0.4142135623747263
 10
338.5872512467686
 20
-239.0703047716083
 10
326.4512122774985
 20
-239.0703047716019
 42
-0.8746233832549236
 10
319.3601878330684
 20
-233.6591146293942
 42
0.7631041444898516
 10
279.8143146605304
 20
-233.6591146293786
 42
-0.8746233832558069
 10
272.7232902161195
 20
-239.0703047716072
 10
260.5872554439266
 20
-239.0703047716099
 10
260.5872554439266
 20
-239.07030477161
 42
0.4142137672594505
 10
254.587251246805
 20
-245.0703047716299
 10
271.486499706647
 20
-293.3538717997819
 42
-0.1460887458195556
 10
271.486499706647
 20
-296.7867377434291
 10
254.5872512467994
 20
-345.0703047715861
 42
0.414213767259384
 10
260.5872554439266
 20
-351.070304771607
 10
272.7232902112075
 20
-351.0703047765044
 42
-0.874623383932803
 10
279.8143146605297
 20
-356.4814949138181
 42
0.7631041444948812
 10
319.3601878330809
 20
-356.4814949138122
 42
-0.8746233839330259
  0
ENDSEC
  0
SECTION
  2
OBJECTS
  0
DICTIONARY
  5
C
330
0
100
AcDbDictionary
281
    1
  3
ACAD_GROUP
350
D
  0
DICTIONARY
  5
D
330
C
100
AcDbDictionary
281
    1
  0
PLOTSETTINGS
  5
56
100
AcDbPlotSettings
  6
1x1
 40
0
 41
0
 42
0
 43
0
  0
ENDSEC
  0
EOF
