  0
SECTION
  2
HEADER
  9
$ACADVER
  1
AC1021
  9
$ACADMAINTVER
 70
25
  9
$DWGCODEPAGE
  3
ANSI_1252
  9
$INSBASE
 10
0.0
 20
0.0
 30
0.0
  9
$EXTMIN
 10
1e+20
 20
1e+20
 30
1e+20
  9
$EXTMAX
 10
-1e+20
 20
-1e+20
 30
-1e+20
  9
$LIMMIN
 10
0.0
 20
0.0
  9
$LIMMAX
 10
420.0
 20
297.0
  9
$ORTHOMODE
 70
0
  9
$REGENMODE
 70
1
  9
$FILLMODE
 70
1
  9
$QTEXTMODE
 70
0
  9
$MIRRTEXT
 70
1
  9
$LTSCALE
 40
1.0
  9
$ATTMODE
 70
1
  9
$TEXTSIZE
 40
0.2
  9
$TRACEWID
 40
0.05
  9
$TEXTSTYLE
  7
STANDARD
  9
$CLAYER
  8
4_ANYTOOL_CUTTHROUGH_OUTSI
  9
$CELTYPE
  6
BYLAYER
  9
$CECOLOR
 62
256
  9
$CELTSCALE
 40
1.0
  9
$DISPSILH
 70
0
  9
$DIMSCALE
 40
1.0
  9
$DIMASZ
 40
0.18
  9
$DIMEXO
 40
0.0625
  9
$DIMDLI
 40
0.38
  9
$DIMRND
 40
0.0
  9
$DIMDLE
 40
0.0
  9
$DIMEXE
 40
0.18
  9
$DIMTP
 40
0.0
  9
$DIMTM
 40
0.0
  9
$DIMTXT
 40
0.18
  9
$DIMCEN
 40
0.09
  9
$DIMTSZ
 40
0.0
  9
$DIMTOL
 70
0
  9
$DIMLIM
 70
0
  9
$DIMTIH
 70
1
  9
$DIMTOH
 70
1
  9
$DIMSE1
 70
0
  9
$DIMSE2
 70
0
  9
$DIMTAD
 70
0
  9
$DIMZIN
 70
0
  9
$DIMBLK
  1

  9
$DIMASO
 70
1
  9
$DIMSHO
 70
1
  9
$DIMPOST
  1

  9
$DIMAPOST
  1

  9
$DIMALT
 70
0
  9
$DIMALTD
 70
2
  9
$DIMALTF
 40
25.4
  9
$DIMLFAC
 40
1.0
  9
$DIMTOFL
 70
0
  9
$DIMTVP
 40
0.0
  9
$DIMTIX
 70
0
  9
$DIMSOXD
 70
0
  9
$DIMSAH
 70
0
  9
$DIMBLK1
  1

  9
$DIMBLK2
  1

  9
$DIMSTYLE
  2
STANDARD_ACAD
  9
$DIMCLRD
 70
0
  9
$DIMCLRE
 70
0
  9
$DIMCLRT
 70
0
  9
$DIMTFAC
 40
1.0
  9
$DIMGAP
 40
0.09
  9
$DIMJUST
 70
0
  9
$DIMSD1
 70
0
  9
$DIMSD2
 70
0
  9
$DIMTOLJ
 70
1
  9
$DIMTZIN
 70
0
  9
$DIMALTZ
 70
0
  9
$DIMALTTZ
 70
0
  9
$DIMUPT
 70
0
  9
$DIMDEC
 70
4
  9
$DIMTDEC
 70
4
  9
$DIMALTU
 70
2
  9
$DIMALTTD
 70
2
  9
$DIMTXSTY
  7
standard
  9
$DIMAUNIT
 70
0
  9
$DIMADEC
 70
0
  9
$DIMALTRND
 40
0.0
  9
$DIMAZIN
 70
0
  9
$DIMDSEP
 70
44
  9
$DIMATFIT
 70
3
  9
$DIMFRAC
 70
0
  9
$DIMLDRBLK
  1
STANDARD
  9
$DIMLUNIT
 70
2
  9
$DIMLWD
 70
-2
  9
$DIMLWE
 70
-2
  9
$DIMTMOVE
 70
0
  9
$DIMFXL
 40
1.0
  9
$DIMFXLON
 70
0
  9
$DIMJOGANG
 40
0.7854
  9
$DIMTFILL
 70
0
  9
$DIMTFILLCLR
 70
0
  9
$DIMARCSYM
 70
0
  9
$DIMLTYPE
  6

  9
$DIMLTEX1
  6

  9
$DIMLTEX2
  6

  9
$LUNITS
 70
2
  9
$LUPREC
 70
3
  9
$SKETCHINC
 40
0.1
  9
$FILLETRAD
 40
0.0
  9
$AUNITS
 70
0
  9
$AUPREC
 70
0
  9
$MENU
  1
.
  9
$ELEVATION
 40
0.0
  9
$PELEVATION
 40
0.0
  9
$THICKNESS
 40
0.0
  9
$LIMCHECK
 70
0
  9
$CHAMFERA
 40
0.0
  9
$CHAMFERB
 40
0.0
  9
$CHAMFERC
 40
0.0
  9
$CHAMFERD
 40
0.0
  9
$SKPOLY
 70
0
  9
$TDCREATE
 40
2460500.3114467594
  9
$TDUPDATE
 40
2460500.3114467594
  9
$USRTIMER
 70
1
  9
$ANGBASE
 50
0.0
  9
$ANGDIR
 70
0
  9
$PDMODE
 70
0
  9
$PDSIZE
 40
0.0
  9
$PLINEWID
 40
0.0
  9
$SPLFRAME
 70
0
  9
$SPLINETYPE
 70
6
  9
$SPLINESEGS
 70
8
  9
$HANDSEED
  5
20017
  9
$SURFTAB1
 70
6
  9
$SURFTAB2
 70
6
  9
$SURFTYPE
 70
6
  9
$SURFU
 70
6
  9
$SURFV
 70
6
  9
$UCSBASE
  2

  9
$UCSNAME
  2

  9
$UCSORG
 10
0.0
 20
0.0
 30
0.0
  9
$UCSXDIR
 10
1.0
 20
0.0
 30
0.0
  9
$UCSYDIR
 10
0.0
 20
1.0
 30
0.0
  9
$UCSORTHOREF
  2

  9
$UCSORTHOVIEW
 70
0
  9
$UCSORGTOP
 10
0.0
 20
0.0
 30
0.0
  9
$UCSORGBOTTOM
 10
0.0
 20
0.0
 30
0.0
  9
$UCSORGLEFT
 10
0.0
 20
0.0
 30
0.0
  9
$UCSORGRIGHT
 10
0.0
 20
0.0
 30
0.0
  9
$UCSORGFRONT
 10
0.0
 20
0.0
 30
0.0
  9
$UCSORGBACK
 10
0.0
 20
0.0
 30
0.0
  9
$PUCSBASE
  2

  9
$PUCSNAME
  2

  9
$PUCSORG
 10
0.0
 20
0.0
 30
0.0
  9
$PUCSXDIR
 10
1.0
 20
0.0
 30
0.0
  9
$PUCSYDIR
 10
0.0
 20
1.0
 30
0.0
  9
$PUCSORTHOREF
  2

  9
$PUCSORTHOVIEW
 70
0
  9
$PUCSORGTOP
 10
0.0
 20
0.0
 30
0.0
  9
$PUCSORGBOTTOM
 10
0.0
 20
0.0
 30
0.0
  9
$PUCSORGLEFT
 10
0.0
 20
0.0
 30
0.0
  9
$PUCSORGRIGHT
 10
0.0
 20
0.0
 30
0.0
  9
$PUCSORGFRONT
 10
0.0
 20
0.0
 30
0.0
  9
$PUCSORGBACK
 10
0.0
 20
0.0
 30
0.0
  9
$USERI1
 70
0
  9
$USERI2
 70
0
  9
$USERI3
 70
0
  9
$USERI4
 70
0
  9
$USERI5
 70
0
  9
$USERR1
 40
0.0
  9
$USERR2
 40
0.0
  9
$USERR3
 40
0.0
  9
$USERR4
 40
0.0
  9
$USERR5
 40
0.0
  9
$WORLDVIEW
 70
1
  9
$SHADEDGE
 70
3
  9
$SHADEDIF
 70
70
  9
$TILEMODE
 70
1
  9
$MAXACTVP
 70
64
  9
$PINSBASE
 10
0.0
 20
0.0
 30
0.0
  9
$PLIMCHECK
 70
0
  9
$PEXTMIN
 10
1e+20
 20
1e+20
 30
1e+20
  9
$PEXTMAX
 10
-1e+20
 20
-1e+20
 30
-1e+20
  9
$PLIMMIN
 10
0.0
 20
0.0
  9
$PLIMMAX
 10
420.0
 20
297.0
  9
$UNITMODE
 70
0
  9
$VISRETAIN
 70
1
  9
$PLINEGEN
 70
0
  9
$PSLTSCALE
 70
1
  9
$TREEDEPTH
 70
3020
  9
$CMLSTYLE
  2
STANDARD
  9
$CMLJUST
 70
0
  9
$CMLSCALE
 40
1.0
  9
$PROXYGRAPHICS
 70
1
  9
$MEASUREMENT
 70
1
  9
$CELWEIGHT
370
-1
  9
$ENDCAPS
280
0
  9
$JOINSTYLE
280
0
  9
$LWDISPLAY
290
0
  9
$INSUNITS
 70
4
  9
$HYPERLINKBASE
  1

  9
$STYLESHEET
  1

  9
$XEDIT
290
1
  9
$CEPSNTYPE
380
0
  9
$PSTYLEMODE
290
1
  9
$FINGERPRINTGUID
  2
{6F201D22-747E-45D2-AC40-7053CE235FEE}
  9
$VERSIONGUID
  2
{FE0080AA-9502-4031-A162-22953276E0C6}
  9
$EXTNAMES
290
1
  9
$PSVPSCALE
 40
1.0
  9
$OLESTARTUP
290
0
  9
$SORTENTS
280
127
  9
$INDEXCTL
280
0
  9
$HIDETEXT
280
1
  9
$XCLIPFRAME
290
0
  9
$HALOGAP
280
0
  9
$OBSCOLOR
 70
257
  9
$OBSLTYPE
280
0
  9
$INTERSECTIONDISPLAY
280
0
  9
$INTERSECTIONCOLOR
 70
257
  9
$DIMASSOC
280
1
  9
$PROJECTNAME
  1

  9
$CAMERADISPLAY
290
0
  9
$LENSLENGTH
 40
50.0
  9
$CAMERAHEIGHT
 40
0.0
  9
$STEPSPERSEC
 40
2.0
  9
$STEPSIZE
 40
50.0
  9
$3DDWFPREC
 40
2.0
  9
$PSOLWIDTH
 40
5.0
  9
$PSOLHEIGHT
 40
80.0
  9
$LOFTANG1
 40
1.570796326794897
  9
$LOFTANG2
 40
1.570796326794897
  9
$LOFTMAG1
 40
0.0
  9
$LOFTMAG2
 40
0.0
  9
$LOFTPARAM
 70
7
  9
$LOFTNORMALS
280
1
  9
$LATITUDE
 40
1.0
  9
$LONGITUDE
 40
1.0
  9
$NORTHDIRECTION
 40
0.0
  9
$TIMEZONE
 70
-8000
  9
$LIGHTGLYPHDISPLAY
280
1
  9
$TILEMODELIGHTSYNCH
280
1
  9
$CMATERIAL
347
2000E
  9
$SOLIDHIST
280
1
  9
$SHOWHIST
280
1
  9
$DWFFRAME
280
2
  9
$DGNFRAME
280
0
  9
$REALWORLDSCALE
290
1
  9
$INTERFERECOLOR
 62
1
  9
$CSHADOW
280
0
  9
$SHADOWPLANELOCATION
 40
0.0
  0
ENDSEC
  0
SECTION
  2
CLASSES
  0
CLASS
  1
ACDBDICTIONARYWDFLT
  2
AcDbDictionaryWithDefault
  3
ObjectDBX Classes
 90
0
 91
0
280
0
281
0
  0
CLASS
  1
SUN
  2
AcDbSun
  3
SCENEOE
 90
1153
 91
0
280
0
281
0
  0
CLASS
  1
VISUALSTYLE
  2
AcDbVisualStyle
  3
ObjectDBX Classes
 90
4095
 91
0
280
0
281
0
  0
CLASS
  1
MATERIAL
  2
AcDbMaterial
  3
ObjectDBX Classes
 90
1153
 91
0
280
0
281
0
  0
CLASS
  1
SCALE
  2
AcDbScale
  3
ObjectDBX Classes
 90
1153
 91
0
280
0
281
0
  0
CLASS
  1
TABLESTYLE
  2
AcDbTableStyle
  3
ObjectDBX Classes
 90
4095
 91
0
280
0
281
0
  0
CLASS
  1
MLEADERSTYLE
  2
AcDbMLeaderStyle
  3
ACDB_MLEADERSTYLE_CLASS
 90
4095
 91
0
280
0
281
0
  0
CLASS
  1
DICTIONARYVAR
  2
AcDbDictionaryVar
  3
ObjectDBX Classes
 90
0
 91
0
280
0
281
0
  0
CLASS
  1
CELLSTYLEMAP
  2
AcDbCellStyleMap
  3
ObjectDBX Classes
 90
1152
 91
0
280
0
281
0
  0
CLASS
  1
MENTALRAYRENDERSETTINGS
  2
AcDbMentalRayRenderSettings
  3
SCENEOE
 90
1024
 91
0
280
0
281
0
  0
CLASS
  1
ACDBDETAILVIEWSTYLE
  2
AcDbDetailViewStyle
  3
ObjectDBX Classes
 90
1025
 91
0
280
0
281
0
  0
CLASS
  1
ACDBSECTIONVIEWSTYLE
  2
AcDbSectionViewStyle
  3
ObjectDBX Classes
 90
1025
 91
0
280
0
281
0
  0
CLASS
  1
RASTERVARIABLES
  2
AcDbRasterVariables
  3
ISM
 90
0
 91
0
280
0
281
0
  0
CLASS
  1
LAYOUT
  2
AcDbLayout
  3
ObjectDBX Classes
 90
0
 91
0
280
0
281
0
  0
CLASS
  1
ACDBPLACEHOLDER
  2
AcDbPlaceHolder
  3
ObjectDBX Classes
 90
0
 91
0
280
0
281
0
  0
ENDSEC
  0
SECTION
  2
TABLES
  0
TABLE
  2
VPORT
  5
8
330
0
100
AcDbSymbolTable
 70
1
  0
VPORT
  5
31
330
8
100
AcDbSymbolTableRecord
100
AcDbViewportTableRecord
  2
*ACTIVE
 70
0
 10
0.0
 20
0.0
 11
1.0
 21
1.0
 12
2370.03782184613
 22
860.5281047550243
 13
0.0
 23
0.0
 14
10.0
 24
10.0
 15
1.0
 25
1.0
 16
0.0
 26
0.0
 36
1.0
 17
0.0
 27
0.0
 37
0.0
 40
4962.37873742064
 41
2.054913294797688
 42
50.0
 43
0.0
 44
0.0
 50
0.0
 51
0.0
 71
0
 72
100
 73
1
 74
3
 75
0
 76
1
 77
0
 78
0
281
0
 65
1
110
0.0
120
0.0
130
0.0
111
1.0
121
0.0
131
0.0
112
0.0
122
1.0
132
0.0
 79
0
146
0.0
 60
3
 61
5
348
10020
292
1
282
1
141
0.0
142
0.0
 63
250
421
3358443
  0
ENDTAB
  0
TABLE
  2
LTYPE
  5
5
330
0
100
AcDbSymbolTable
 70
27
  0
LTYPE
  5
14
330
5
100
AcDbSymbolTableRecord
100
AcDbLinetypeTableRecord
  2
ByBlock
 70
0
  3

 72
65
 73
0
 40
0.0
  0
LTYPE
  5
15
330
5
100
AcDbSymbolTableRecord
100
AcDbLinetypeTableRecord
  2
ByLayer
 70
0
  3

 72
65
 73
0
 40
0.0
  0
LTYPE
  5
16
330
5
100
AcDbSymbolTableRecord
100
AcDbLinetypeTableRecord
  2
Continuous
 70
0
  3
Solid line
 72
65
 73
0
 40
0.0
  0
LTYPE
  5
32
330
5
100
AcDbSymbolTableRecord
100
AcDbLinetypeTableRecord
  2
DOT
 70
0
  3
Dot . . . . . . . . . . . . . . . . . . . . . .
 72
65
 73
2
 40
6.35
 49
0.0
 74
0
 49
-6.35
 74
0
  0
LTYPE
  5
33
330
5
100
AcDbSymbolTableRecord
100
AcDbLinetypeTableRecord
  2
DOTTINY
 70
0
  3
Dot (.15x) .....................................
 72
65
 73
2
 40
0.9525
 49
0.0
 74
0
 49
-0.9525
 74
0
  0
LTYPE
  5
34
330
5
100
AcDbSymbolTableRecord
100
AcDbLinetypeTableRecord
  2
DOT2
 70
0
  3
Dot (.5x) .....................................
 72
65
 73
2
 40
3.175
 49
0.0
 74
0
 49
-3.175
 74
0
  0
LTYPE
  5
35
330
5
100
AcDbSymbolTableRecord
100
AcDbLinetypeTableRecord
  2
DOTX2
 70
0
  3
Dot (2x) .  .  .  .  .  .  .  .  .  .  .  .  .
 72
65
 73
2
 40
12.7
 49
0.0
 74
0
 49
-12.7
 74
0
  0
LTYPE
  5
36
330
5
100
AcDbSymbolTableRecord
100
AcDbLinetypeTableRecord
  2
DASHED
 70
0
  3
Dashed _ _ _ _ _ _ _ _ _ _ _ _ _ _ _ _ _
 72
65
 73
2
 40
19.05
 49
12.7
 74
0
 49
-6.35
 74
0
  0
LTYPE
  5
37
330
5
100
AcDbSymbolTableRecord
100
AcDbLinetypeTableRecord
  2
DASHEDTINY
 70
0
  3
Dashed (.15x) _ _ _ _ _ _ _ _ _ _ _ _ _ _ _ _ _
 72
65
 73
2
 40
2.8575
 49
1.905
 74
0
 49
-0.9525
 74
0
  0
LTYPE
  5
38
330
5
100
AcDbSymbolTableRecord
100
AcDbLinetypeTableRecord
  2
DASHED2
 70
0
  3
Dashed (.5x) _ _ _ _ _ _ _ _ _ _ _ _ _ _ _ _ _
 72
65
 73
2
 40
9.524999999999999
 49
6.35
 74
0
 49
-3.175
 74
0
  0
LTYPE
  5
39
330
5
100
AcDbSymbolTableRecord
100
AcDbLinetypeTableRecord
  2
DASHEDX2
 70
0
  3
Dashed (2x) ____  ____  ____  ____  ____  ___
 72
65
 73
2
 40
38.09999999999999
 49
25.4
 74
0
 49
-12.7
 74
0
  0
LTYPE
  5
3A
330
5
100
AcDbSymbolTableRecord
100
AcDbLinetypeTableRecord
  2
DASHDOT
 70
0
  3
Dash dot __ . __ . __ . __ . __ . __ . __ . __
 72
65
 73
4
 40
25.4
 49
12.7
 74
0
 49
-6.35
 74
0
 49
0.0
 74
0
 49
-6.35
 74
0
  0
LTYPE
  5
3B
330
5
100
AcDbSymbolTableRecord
100
AcDbLinetypeTableRecord
  2
DASHDOTTINY
 70
0
  3
Dash dot (.15x) _._._._._._._._._._._._._._._.
 72
65
 73
4
 40
3.81
 49
1.905
 74
0
 49
-0.9525
 74
0
 49
0.0
 74
0
 49
-0.9525
 74
0
  0
LTYPE
  5
3C
330
5
100
AcDbSymbolTableRecord
100
AcDbLinetypeTableRecord
  2
DASHDOT2
 70
0
  3
Dash dot (.5x) _._._._._._._._._._._._._._._.
 72
65
 73
4
 40
12.7
 49
6.35
 74
0
 49
-3.175
 74
0
 49
0.0
 74
0
 49
-3.175
 74
0
  0
LTYPE
  5
3D
330
5
100
AcDbSymbolTableRecord
100
AcDbLinetypeTableRecord
  2
DASHDOTX2
 70
0
  3
Dash dot (2x) ____  .  ____  .  ____  .  ___
 72
65
 73
4
 40
50.8
 49
25.4
 74
0
 49
-12.7
 74
0
 49
0.0
 74
0
 49
-12.7
 74
0
  0
LTYPE
  5
3E
330
5
100
AcDbSymbolTableRecord
100
AcDbLinetypeTableRecord
  2
DIVIDE
 70
0
  3
Divide ____ . . ____ . . ____ . . ____ . . ____
 72
65
 73
6
 40
31.75
 49
12.7
 74
0
 49
-6.35
 74
0
 49
0.0
 74
0
 49
-6.35
 74
0
 49
0.0
 74
0
 49
-6.35
 74
0
  0
LTYPE
  5
3F
330
5
100
AcDbSymbolTableRecord
100
AcDbLinetypeTableRecord
  2
DIVIDETINY
 70
0
  3
Divide (.15x) __..__..__..__..__..__..__..__.._
 72
65
 73
6
 40
4.7625
 49
1.905
 74
0
 49
-0.9525
 74
0
 49
0.0
 74
0
 49
-0.9525
 74
0
 49
0.0
 74
0
 49
-0.9525
 74
0
  0
LTYPE
  5
40
330
5
100
AcDbSymbolTableRecord
100
AcDbLinetypeTableRecord
  2
DIVIDE2
 70
0
  3
Divide (.5x) __..__..__..__..__..__..__..__.._
 72
65
 73
6
 40
15.875
 49
6.35
 74
0
 49
-3.175
 74
0
 49
0.0
 74
0
 49
-3.175
 74
0
 49
0.0
 74
0
 49
-3.175
 74
0
  0
LTYPE
  5
41
330
5
100
AcDbSymbolTableRecord
100
AcDbLinetypeTableRecord
  2
DIVIDEX2
 70
0
  3
Divide (2x) ________  .  .  ________  .  .  _
 72
65
 73
6
 40
63.5
 49
25.4
 74
0
 49
-12.7
 74
0
 49
0.0
 74
0
 49
-12.7
 74
0
 49
0.0
 74
0
 49
-12.7
 74
0
  0
LTYPE
  5
42
330
5
100
AcDbSymbolTableRecord
100
AcDbLinetypeTableRecord
  2
BORDER
 70
0
  3
Border __ __ . __ __ . __ __ . __ __ . __ __ .
 72
65
 73
6
 40
44.45
 49
12.7
 74
0
 49
-6.35
 74
0
 49
12.7
 74
0
 49
-6.35
 74
0
 49
0.0
 74
0
 49
-6.35
 74
0
  0
LTYPE
  5
43
330
5
100
AcDbSymbolTableRecord
100
AcDbLinetypeTableRecord
  2
BORDERTINY
 70
0
  3
Border (.15x) __.__.__.__.__.__.__.__.__.__.__.
 72
65
 73
6
 40
6.6675
 49
1.905
 74
0
 49
-0.9525
 74
0
 49
1.905
 74
0
 49
-0.9525
 74
0
 49
0.0
 74
0
 49
-0.9525
 74
0
  0
LTYPE
  5
44
330
5
100
AcDbSymbolTableRecord
100
AcDbLinetypeTableRecord
  2
BORDER2
 70
0
  3
Border (.5x) __.__.__.__.__.__.__.__.__.__.__.
 72
65
 73
6
 40
22.225
 49
6.35
 74
0
 49
-3.175
 74
0
 49
6.35
 74
0
 49
-3.175
 74
0
 49
0.0
 74
0
 49
-3.175
 74
0
  0
LTYPE
  5
45
330
5
100
AcDbSymbolTableRecord
100
AcDbLinetypeTableRecord
  2
BORDERX2
 70
0
  3
Border (2x) ____  ____  .  ____  ____  .  ___
 72
65
 73
6
 40
88.89999999999999
 49
25.4
 74
0
 49
-12.7
 74
0
 49
25.4
 74
0
 49
-12.7
 74
0
 49
0.0
 74
0
 49
-12.7
 74
0
  0
LTYPE
  5
46
330
5
100
AcDbSymbolTableRecord
100
AcDbLinetypeTableRecord
  2
CENTER
 70
0
  3
Center ____ _ ____ _ ____ _ ____ _ ____ _ ____
 72
65
 73
4
 40
50.8
 49
31.75
 74
0
 49
-6.35
 74
0
 49
6.35
 74
0
 49
-6.35
 74
0
  0
LTYPE
  5
47
330
5
100
AcDbSymbolTableRecord
100
AcDbLinetypeTableRecord
  2
CENTERTINY
 70
0
  3
Center (.15x) ___ _ ___ _ ___ _ ___ _ ___ _ ___
 72
65
 73
4
 40
7.619999999999999
 49
4.7625
 74
0
 49
-0.9525
 74
0
 49
0.9525
 74
0
 49
-0.9525
 74
0
  0
LTYPE
  5
48
330
5
100
AcDbSymbolTableRecord
100
AcDbLinetypeTableRecord
  2
CENTER2
 70
0
  3
Center (.5x) ___ _ ___ _ ___ _ ___ _ ___ _ ___
 72
65
 73
4
 40
28.575
 49
19.05
 74
0
 49
-3.175
 74
0
 49
3.175
 74
0
 49
-3.175
 74
0
  0
LTYPE
  5
49
330
5
100
AcDbSymbolTableRecord
100
AcDbLinetypeTableRecord
  2
CENTERX2
 70
0
  3
Center (2x) ________  __  ________  __  _____
 72
65
 73
4
 40
101.6
 49
63.5
 74
0
 49
-12.7
 74
0
 49
12.7
 74
0
 49
-12.7
 74
0
  0
ENDTAB
  0
TABLE
  2
LAYER
  5
2
330
0
100
AcDbSymbolTable
 70
8
  0
LAYER
  5
10
330
2
100
AcDbSymbolTableRecord
100
AcDbLayerTableRecord
  2
0
 70
0
 62
7
  6
CONTINUOUS
370
-3
390
F
347
2000F
  0
LAYER
  5
4A
330
2
100
AcDbSymbolTableRecord
100
AcDbLayerTableRecord
  2
0_SHEET_SPRUCEPLY_2440X122
 70
0
 62
1
  6
CONTINUOUS
370
-3
390
F
347
2000F
  0
LAYER
  5
4B
330
2
100
AcDbSymbolTableRecord
100
AcDbLayerTableRecord
  2
1_ANYTOOL_1MMDEEP_LABELS_S
 70
0
 62
2
  6
CONTINUOUS
370
-3
390
F
347
2000F
  0
LAYER
  5
4C
330
2
100
AcDbSymbolTableRecord
100
AcDbLayerTableRecord
  2
3_ANYTOOL_CUTTHROUGH_INSID
 70
0
 62
4
  6
CONTINUOUS
370
-3
390
F
347
2000F
  0
LAYER
  5
4D
330
2
100
AcDbSymbolTableRecord
100
AcDbLayerTableRecord
  2
4_ANYTOOL_CUTTHROUGH_OUTSI
 70
0
 62
5
  6
CONTINUOUS
370
-3
390
F
347
2000F
  0
LAYER
  5
4E
330
2
100
AcDbSymbolTableRecord
100
AcDbLayerTableRecord
  2
5_ANYTOOL_HALF_MILL_9MM_IN
 70
0
 62
3
  6
CONTINUOUS
370
-3
390
F
347
2000F
  0
LAYER
  5
4F
330
2
100
AcDbSymbolTableRecord
100
AcDbLayerTableRecord
  2
DONOTCUT
 70
0
 62
18
  6
CONTINUOUS
370
-3
390
F
347
2000F
  0
LAYER
  5
20011
330
2
100
AcDbSymbolTableRecord
100
AcDbLayerTableRecord
  2
Defpoints
 70
0
 62
7
  6
Continuous
290
0
370
-3
390
20007
347
2000F
  0
ENDTAB
  0
TABLE
  2
STYLE
  5
3
330
0
100
AcDbSymbolTable
 70
1
  0
STYLE
  5
50
330
3
100
AcDbSymbolTableRecord
100
AcDbTextStyleTableRecord
  2
Standard
 70
0
 40
0.0
 41
1.0
 50
0.0
 71
0
 42
1.0
  3
txt
  4

  0
ENDTAB
  0
TABLE
  2
VIEW
  5
6
330
0
100
AcDbSymbolTable
 70
0
  0
ENDTAB
  0
TABLE
  2
UCS
  5
7
330
0
100
AcDbSymbolTable
 70
0
  0
ENDTAB
  0
TABLE
  2
APPID
  5
9
330
0
100
AcDbSymbolTable
 70
4
  0
APPID
  5
12
330
9
100
AcDbSymbolTableRecord
100
AcDbRegAppTableRecord
  2
ACAD
 70
0
  0
APPID
  5
51
330
9
100
AcDbSymbolTableRecord
100
AcDbRegAppTableRecord
  2
LibreCad
 70
0
  0
APPID
  5
20013
330
9
100
AcDbSymbolTableRecord
100
AcDbRegAppTableRecord
  2
HATCHBACKGROUNDCOLOR
 70
0
  0
APPID
  5
20014
330
9
100
AcDbSymbolTableRecord
100
AcDbRegAppTableRecord
  2
EZDXF
 70
0
  0
ENDTAB
  0
TABLE
  2
DIMSTYLE
  5
A
330
0
100
AcDbSymbolTable
 70
1
100
AcDbDimStyleTable
  0
DIMSTYLE
105
52
330
A
100
AcDbSymbolTableRecord
100
AcDbDimStyleTableRecord
  2
Standard
 70
0
 40
1.0
 41
0.18
 42
0.0625
 43
0.38
 44
0.18
 45
0.0
 46
0.0
 47
0.0
 48
0.0
 49
1.0
140
0.18
141
0.09
142
0.0
143
25.4
144
1.0
145
0.0
146
1.0
147
0.09
148
0.0
 69
0
 70
0
 71
0
 72
0
 73
1
 74
1
 75
0
 76
0
 77
0
 78
0
 79
0
170
0
171
2
172
0
173
0
174
0
175
0
176
0
177
0
178
0
179
0
271
4
272
4
273
2
274
2
275
0
276
0
277
2
278
44
279
0
280
0
281
0
282
0
283
1
284
0
285
0
286
0
288
0
289
3
290
0
371
-2
372
-2
  0
ENDTAB
  0
TABLE
  2
BLOCK_RECORD
  5
1
330
0
100
AcDbSymbolTable
 70
2
  0
BLOCK_RECORD
  5
1F
330
1
100
AcDbSymbolTableRecord
100
AcDbBlockTableRecord
  2
*Model_Space
340
2000B
 70
0
280
1
281
0
  0
BLOCK_RECORD
  5
1E
330
1
100
AcDbSymbolTableRecord
100
AcDbBlockTableRecord
  2
*Paper_Space
340
2000C
 70
0
280
1
281
0
  0
ENDTAB
  0
ENDSEC
  0
SECTION
  2
BLOCKS
  0
BLOCK
  5
20
330
1F
100
AcDbEntity
  8
0
100
AcDbBlockBegin
  2
*Model_Space
 70
0
 10
0.0
 20
0.0
 30
0.0
  3
*Model_Space
  1

  0
ENDBLK
  5
21
330
1F
100
AcDbEntity
  8
0
100
AcDbBlockEnd
  0
BLOCK
  5
1C
330
1E
100
AcDbEntity
  8
0
100
AcDbBlockBegin
  2
*Paper_Space
 70
0
 10
0.0
 20
0.0
 30
0.0
  3
*Paper_Space
  1

  0
ENDBLK
  5
1D
330
1E
100
AcDbEntity
  8
0
100
AcDbBlockEnd
  0
ENDSEC
  0
SECTION
  2
ENTITIES
  0
LWPOLYLINE
  5
53
330
1F
100
AcDbEntity
  8
5_ANYTOOL_HALF_MILL_9MM_IN
  6
ByLayer
100
AcDbPolyline
 90
182
 70
1
 10
-25.339553085826026
 20
63.756097560901225
 10
-25.396851578371752
 20
63.55663840910532
 10
-25.447218000278554
 20
63.35531703908532
 10
-25.490592097806257
 20
63.15237429310832
 10
-25.52692198223025
 20
62.94805295310542
 10
-25.55616419181831
 20
62.742597450232324
 10
-25.578283743875545
 20
62.53625357244934
 10
-25.593254176660537
 20
62.32926817048934
 10
-25.601057580891336
 20
62.12188886254242
 10
-25.60168462131054
 20
61.91436373803322
 10
-25.59513454779602
 20
61.70694106082834
 10
-25.58141519624121
 20
61.499868972233344
 10
-25.560542979198544
 20
61.29339519414543
 10
-25.532542866277254
 20
61.087766732694234
 10
-25.497448354210917
 20
60.88322958275532
 10
-25.455301426839412
 20
60.68002843365733
 10
-25.406152504839156
 20
60.478406376461436
 10
-25.35006038542724
 20
60.278604613150236
 10
-25.287092172039536
 20
60.08086216807334
 10
-25.217323194018604
 20
59.88541560200332
 10
-25.14083691653002
 20
59.69249872913724
 10
-25.057724840648802
 20
59.50234233737734
 10
-24.96808639400922
 20
59.31517391224634
 10
-24.87202881174835
 20
59.13121736473522
 10
-24.769667008281317
 20
58.95069276344543
 10
-24.661123439779658
 20
58.77381607131224
 10
-24.54652795774831
 20
58.60079888725434
 10
-24.42601765361991
 20
58.43184819302542
 10
-24.29973669476834
 20
58.26716610561243
 10
-24.167836152061625
 20
58.10694963543324
 10
-24.030473819105225
 20
57.95139045065642
 10
-23.887814023511055
 20
57.80067464790022
 10
-23.740027430228054
 20
57.65498252961544
 10
-23.587290837495857
 20
57.51448838837544
 10
-23.429786965237213
 20
57.379360298378344
 10
-23.26770423652573
 20
57.24975991437233
 10
-23.10123655213914
 20
57.12584227827142
 10
-22.930583058617117
 20
57.00775563367324
 10
-22.755947910031807
 20
56.895641248520434
 10
-22.577540023711606
 20
56.789633246092336
 10
-22.39557283034162
 20
56.68985844456034
 10
-22.21026401865032
 20
56.59643620526734
 10
-22.021835274980617
 20
56.50947828994143
 10
-21.83051201803113
 20
56.42908872698834
 10
-21.636523129252055
 20
56.35536368704834
 10
-21.440100679022123
 20
56.28839136794022
 10
-21.241479648976508
 20
56.22825188915132
 10
-21.04089765096512
 20
56.17501719599343
 10
-20.83859464273064
 20
56.12875097352932
 10
-20.63481264087835
 20
56.08950857038823
 10
-20.42979543135965
 20
56.05733693255132
 10
-20.22378827778533
 20
56.03227454719243
 10
-20.01703762808114
 20
56.01435139663022
 10
-19.80979081957861
 20
56.00358892246524
 10
-19.602295783211048
 20
55.99999999992542
 10
19.602295784598994
 20
55.999999999917236
 10
19.809790820959392
 20
56.00358892245734
 10
20.017037629461868
 20
56.01435139662223
 10
20.22378827917339
 20
56.03227454718444
 10
20.429795432740377
 20
56.05733693254342
 10
20.634812642259078
 20
56.08950857037942
 10
20.838594644111254
 20
56.128750973520226
 10
21.04089765235318
 20
56.17501719598434
 10
21.241479650364454
 20
56.22825188914223
 10
21.44010068040285
 20
56.28839136793022
 10
21.636523130639944
 20
56.355363687039244
 10
21.830512019411856
 20
56.429088726978335
 10
22.021835276361344
 20
56.50947828993142
 10
22.210264020031047
 20
56.59643620525733
 10
22.395572831722347
 20
56.689858444549344
 10
22.57754002509239
 20
56.78963324608233
 10
22.75594791141259
 20
56.89564124851043
 10
22.930583059997844
 20
57.00775563366324
 10
23.10123655351987
 20
57.12584227826022
 10
23.26770423791379
 20
57.24975991436122
 10
23.429786966617996
 20
57.37936029836732
 10
23.587290838883746
 20
57.51448838836424
 10
23.74002743160878
 20
57.65498252960424
 10
23.88781402489178
 20
57.80067464789022
 10
24.030473820493285
 20
57.95139045064522
 10
24.16783615344235
 20
58.106949635423234
 10
24.29973669614907
 20
58.26716610560243
 10
24.42601765499336
 20
58.43184819301422
 10
24.546527959129094
 20
58.60079888724343
 10
24.661123441160385
 20
58.773816071302235
 10
24.769667009662044
 20
58.95069276343432
 10
24.872028813129077
 20
59.131217364724336
 10
24.968086395389946
 20
59.31517391223542
 10
25.057724842029586
 20
59.50234233736734
 10
25.140836917910747
 20
59.69249872912633
 10
25.217323195413996
 20
59.885415601993344
 10
25.287092173420262
 20
60.08086216806234
 10
25.350060386807854
 20
60.27860461314023
 10
25.406152506219883
 20
60.47840637645143
 10
25.455301428220196
 20
60.68002843364732
 10
25.497448355598863
 20
60.883229582745344
 10
25.53254286765798
 20
61.08776673268423
 10
25.560542980593766
 20
61.29339519413543
 10
25.58141519762927
 20
61.49986897222334
 10
25.59513454918408
 20
61.70694106081834
 10
25.601684622691266
 20
61.91436373802344
 10
25.601057582272063
 20
62.121888862532444
 10
25.593254178041263
 20
62.32926817047934
 10
25.57828374526349
 20
62.536253572440216
 10
25.556164193191762
 20
62.74259745022232
 10
25.526921983610976
 20
62.94805295309632
 10
25.490592099194146
 20
63.15237429309832
 10
25.447218001651947
 20
63.35531703907532
 10
25.39685157975248
 20
63.55663840909534
 10
25.339553087214085
 20
63.75609756089122
 10
25.053510015684083
 20
64.63548701158243
 10
24.73695869208956
 20
65.50436082536044
 10
24.39028458845047
 20
66.36166095402632
 10
24.013909858039483
 20
67.20634344292623
 10
23.60829282128458
 20
68.03737970220143
 10
23.173927407630856
 20
68.85375775933042
 10
22.711342554131193
 20
69.65448349143432
 10
22.221101561298497
 20
70.43858183583734
 10
21.703801407201354
 20
71.20509797742943
 10
21.16007202050156
 20
71.95309851136332
 10
20.590575513290844
 20
72.68167257968844
 10
19.99600537500288
 20
73.38993298051622
 10
19.377085627710642
 20
74.07701724839742
 10
18.734569944680572
 20
74.74208870455644
 10
18.069240732452386
 20
75.38433747574143
 10
17.381908178139497
 20
76.00298148042432
 10
16.67340926288216
 20
76.59726738115933
 10
15.94460674255157
 20
77.16647150194032
 10
15.196388097253589
 20
77.70990070943932
 10
14.429664450522182
 20
78.22689325704823
 10
13.645369459881351
 20
78.71681959070722
 10
12.844458179918547
 20
79.17908311552534
 10
12.02790589925928
 20
79.61312092226743
 10
11.196706952919158
 20
80.01840447282322
 10
10.351873511549456
 20
80.39444024382334
 10
9.494434348801462
 20
80.74077032761033
 10
8.625433588661565
 20
81.05697298984342
 10
7.745929433890581
 20
81.34266318305734
 10
6.856992877538744
 20
81.59749301554322
 10
5.9597063986794865
 20
81.82115217498222
 10
5.055162644303948
 20
82.01336830632434
 10
4.144463098730796
 20
82.17390734343644
 10
3.228716742362849
 20
82.30257379413433
 10
2.309038701189877
 20
82.39921097823432
 10
1.3865488889632616
 20
82.46370121835142
 10
0.4623706433404777
 20
82.49596598319343
 10
-0.4623706419597511
 20
82.49596598319434
 10
-1.3865488875898109
 20
82.46370121835142
 10
-2.3090386998164263
 20
82.39921097823432
 10
-3.228716740974903
 20
82.30257379413433
 10
-4.1444630973500125
 20
82.17390734343644
 10
-5.055162642930554
 20
82.01336830632434
 10
-5.959706397305922
 20
81.82115217498222
 10
-6.85699287616535
 20
81.59749301554322
 10
-7.74592943251713
 20
81.34266318305734
 10
-8.625433587280838
 20
81.05697298984342
 10
-9.494434347428012
 20
80.74077032761033
 10
-10.351873510168843
 20
80.39444024382442
 10
-11.196706951545707
 20
80.01840447282322
 10
-12.027905897878554
 20
79.61312092226743
 10
-12.844458178559705
 20
79.17908311552534
 10
-13.645369458507957
 20
78.71681959070722
 10
-14.429664449148618
 20
78.22689325704823
 10
-15.196388095880138
 20
77.70990070943932
 10
-15.94460674117812
 20
77.16647150194032
 10
-16.67340926150871
 20
76.59726738115933
 10
-17.381908176758714
 20
76.00298148042432
 10
-18.06924073107882
 20
75.38433747574143
 10
-18.73456994330712
 20
74.74208870455644
 10
-19.377085626337248
 20
74.07701724839742
 10
-19.996005373622154
 20
73.38993298051622
 10
-20.590575511931945
 20
72.68167257968844
 10
-21.160072019120832
 20
71.95309851136332
 10
-21.703801405835236
 20
71.20509797742943
 10
-22.221101559917713
 20
70.43858183583734
 10
-22.71134255275041
 20
69.65448349143432
 10
-23.17392740625013
 20
68.85375775933042
 10
-23.608292819911128
 20
68.03737970220143
 10
-24.01390985666592
 20
67.20634344292623
 10
-24.390284587069743
 20
66.36166095402723
 10
-24.736958690708832
 20
65.50436082536044
 10
-25.05351001431052
 20
64.63548701158243
  0
LWPOLYLINE
  5
54
330
1F
100
AcDbEntity
  8
5_ANYTOOL_HALF_MILL_9MM_IN
  6
ByLayer
100
AcDbPolyline
 90
182
 70
1
 10
-25.339553085826026
 20
-63.75609756090557
 10
-25.396851578371752
 20
-63.55663840910955
 10
-25.447218000278554
 20
-63.3553170390897
 10
-25.490592097806257
 20
-63.15237429311264
 10
-25.52692198223025
 20
-62.94805295311056
 10
-25.55616419181831
 20
-62.742597450236644
 10
-25.578283743875545
 20
-62.5362535724546
 10
-25.593254176660537
 20
-62.32926817049355
 10
-25.601057580891336
 20
-62.12188886254768
 10
-25.60168462131054
 20
-61.91436373803867
 10
-25.59513454779602
 20
-61.70694106083255
 10
-25.58141519624121
 20
-61.49986897223857
 10
-25.560542979198544
 20
-61.29339519414975
 10
-25.532542866277254
 20
-61.08776673269978
 10
-25.497448354210917
 20
-60.88322958276058
 10
-25.455301426839412
 20
-60.680028433662756
 10
-25.406152504839156
 20
-60.478406376466694
 10
-25.35006038542724
 20
-60.278604613154585
 10
-25.287092172039536
 20
-60.080862168077545
 10
-25.217323194018604
 20
-59.88541560200855
 10
-25.14083691653002
 20
-59.69249872914156
 10
-25.057724840648802
 20
-59.50234233738274
 10
-24.96808639400922
 20
-59.31517391225066
 10
-24.87202881174835
 20
-59.13121736473977
 10
-24.769667008281317
 20
-58.95069276344975
 10
-24.661123439779658
 20
-58.7738160713177
 10
-24.54652795774831
 20
-58.60079888725869
 10
-24.42601765361991
 20
-58.431848193030646
 10
-24.29973669476834
 20
-58.26716610561766
 10
-24.167836152061625
 20
-58.106949635438696
 10
-24.030473819105225
 20
-57.951390450660654
 10
-23.887814023511055
 20
-57.80067464790568
 10
-23.740027430228054
 20
-57.654982529620554
 10
-23.587290837495857
 20
-57.51448838838064
 10
-23.429786965237213
 20
-57.37936029838255
 10
-23.26770423652573
 20
-57.24975991437668
 10
-23.10123655213914
 20
-57.1258422782758
 10
-22.930583058617117
 20
-57.00775563367864
 10
-22.755947910031807
 20
-56.89564124852569
 10
-22.577540023711606
 20
-56.789633246097765
 10
-22.39557283034162
 20
-56.68985844456455
 10
-22.21026401865032
 20
-56.59643620527169
 10
-22.021835274980617
 20
-56.50947828994566
 10
-21.83051201803113
 20
-56.42908872699377
 10
-21.636523129252055
 20
-56.35536368705357
 10
-21.440100679022123
 20
-56.28839136794477
 10
-21.241479648976508
 20
-56.22825188915658
 10
-21.04089765096512
 20
-56.17501719599869
 10
-20.83859464273064
 20
-56.12875097353367
 10
-20.63481264087835
 20
-56.08950857039258
 10
-20.42979543135965
 20
-56.05733693255655
 10
-20.22378827778533
 20
-56.03227454719769
 10
-20.01703762808114
 20
-56.014351396635675
 10
-19.80979081957861
 20
-56.00358892246959
 10
-19.602295783211048
 20
-55.99999999992974
 10
19.602295784598994
 20
-55.99999999993656
 10
19.809790820959392
 20
-56.003588922476695
 10
20.017037629461868
 20
-56.01435139664159
 10
20.22378827917339
 20
-56.03227454720377
 10
20.429795432740377
 20
-56.05733693256275
 10
20.634812642259078
 20
-56.08950857039878
 10
20.838594644111254
 20
-56.12875097353958
 10
21.04089765235318
 20
-56.175017196003694
 10
21.241479650364454
 20
-56.228251889161584
 10
21.44010068040285
 20
-56.28839136794977
 10
21.636523130639944
 20
-56.35536368705857
 10
21.830512019411856
 20
-56.42908872699769
 10
22.021835276361344
 20
-56.509478289949584
 10
22.210264020031047
 20
-56.59643620527669
 10
22.395572831722347
 20
-56.68985844456864
 10
22.57754002509239
 20
-56.78963324610169
 10
22.75594791141259
 20
-56.895641248529785
 10
22.930583059997844
 20
-57.007755633682564
 10
23.10123655351987
 20
-57.12584227827955
 10
23.26770423791379
 20
-57.249759914380775
 10
23.429786966617996
 20
-57.37936029838664
 10
23.587290838883746
 20
-57.5144883883836
 10
23.74002743160878
 20
-57.65498252962357
 10
23.88781402489178
 20
-57.80067464790977
 10
24.030473820493285
 20
-57.951390450664576
 10
24.16783615344235
 20
-58.10694963544256
 10
24.29973669614907
 20
-58.267166105621754
 10
24.42601765499336
 20
-58.431848193033545
 10
24.546527959129094
 20
-58.60079888726278
 10
24.661123441160385
 20
-58.77381607132156
 10
24.769667009662044
 20
-58.95069276345356
 10
24.872028813129077
 20
-59.13121736474369
 10
24.968086395389946
 20
-59.31517391225475
 10
25.057724842029586
 20
-59.50234233738655
 10
25.140836917910747
 20
-59.692498729145655
 10
25.217323195413996
 20
-59.88541560201264
 10
25.287092173420262
 20
-60.080862168081694
 10
25.350060386807854
 20
-60.27860461315959
 10
25.406152506219883
 20
-60.47840637647079
 10
25.455301428220196
 20
-60.68002843366668
 10
25.497448355598863
 20
-60.88322958276467
 10
25.53254286765798
 20
-61.087766732703585
 10
25.560542980593766
 20
-61.293395194154755
 10
25.58141519762927
 20
-61.499868972242666
 10
25.59513454918408
 20
-61.70694106083755
 10
25.601684622691266
 20
-61.914363738042766
 10
25.601057582272063
 20
-62.12188886255166
 10
25.593254178041263
 20
-62.32926817049855
 10
25.57828374526349
 20
-62.53625357245954
 10
25.556164193191762
 20
-62.74259745024165
 10
25.526921983610976
 20
-62.94805295311568
 10
25.490592099194146
 20
-63.152374293117646
 10
25.447218001651947
 20
-63.35531703909464
 10
25.39685157975248
 20
-63.556638409114555
 10
25.339553087214085
 20
-63.756097560910575
 10
25.053510015684083
 20
-64.63548701158675
 10
24.73695869208956
 20
-65.50436082536476
 10
24.39028458845047
 20
-66.36166095403178
 10
24.013909858039483
 20
-67.20634344293057
 10
23.60829282128458
 20
-68.03737970220578
 10
23.173927407630856
 20
-68.85375775933568
 10
22.711342554131193
 20
-69.65448349143867
 10
22.221101561298497
 20
-70.43858183584166
 10
21.703801407201354
 20
-71.20509797743375
 10
21.16007202050156
 20
-71.95309851136858
 10
20.590575513290844
 20
-72.68167257969276
 10
19.99600537500288
 20
-73.38993298052179
 10
19.377085627710642
 20
-74.07701724840166
 10
18.734569944680572
 20
-74.74208870456079
 10
18.069240732452386
 20
-75.38433747574578
 10
17.381908178139497
 20
-76.00298148042856
 10
16.67340926288216
 20
-76.59726738116365
 10
15.94460674255157
 20
-77.16647150194558
 10
15.196388097253589
 20
-77.70990070944367
 10
14.429664450522182
 20
-78.22689325705369
 10
13.645369459881351
 20
-78.71681959071265
 10
12.844458179918547
 20
-79.17908311552969
 10
12.02790589925928
 20
-79.61312092227166
 10
11.196706952919158
 20
-80.01840447282865
 10
10.351873511549456
 20
-80.3944402438288
 10
9.494434348801462
 20
-80.74077032761465
 10
8.625433588661565
 20
-81.0569729898478
 10
7.745929433890581
 20
-81.34266318306169
 10
6.856992877538744
 20
-81.59749301554757
 10
5.9597063986794865
 20
-81.82115217498767
 10
5.055162644303948
 20
-82.01336830632977
 10
4.144463098730796
 20
-82.17390734344167
 10
3.228716742362849
 20
-82.30257379413865
 10
2.309038701189877
 20
-82.39921097823867
 10
1.3865488889632616
 20
-82.46370121835565
 10
0.4623706433404777
 20
-82.49596598319869
 10
-0.4623706419597511
 20
-82.49596598319869
 10
-1.3865488875898109
 20
-82.46370121835656
 10
-2.3090386998164263
 20
-82.39921097823867
 10
-3.228716740974903
 20
-82.30257379413865
 10
-4.1444630973500125
 20
-82.17390734344167
 10
-5.055162642930554
 20
-82.01336830632977
 10
-5.959706397305922
 20
-81.82115217498767
 10
-6.85699287616535
 20
-81.59749301554757
 10
-7.74592943251713
 20
-81.34266318306169
 10
-8.625433587280838
 20
-81.0569729898478
 10
-9.494434347428012
 20
-80.74077032761465
 10
-10.351873510168843
 20
-80.3944402438288
 10
-11.196706951545707
 20
-80.01840447282865
 10
-12.027905897878554
 20
-79.61312092227166
 10
-12.844458178559705
 20
-79.17908311552969
 10
-13.645369458507957
 20
-78.71681959071265
 10
-14.429664449148618
 20
-78.22689325705369
 10
-15.196388095880138
 20
-77.70990070944367
 10
-15.94460674117812
 20
-77.16647150194558
 10
-16.67340926150871
 20
-76.59726738116365
 10
-17.381908176758714
 20
-76.00298148042856
 10
-18.06924073107882
 20
-75.38433747574578
 10
-18.73456994330712
 20
-74.74208870456079
 10
-19.377085626337248
 20
-74.07701724840166
 10
-19.996005373622154
 20
-73.38993298052179
 10
-20.590575511931945
 20
-72.68167257969276
 10
-21.160072019120832
 20
-71.95309851136858
 10
-21.703801405835236
 20
-71.20509797743375
 10
-22.221101559917713
 20
-70.43858183584166
 10
-22.71134255275041
 20
-69.65448349143867
 10
-23.17392740625013
 20
-68.85375775933568
 10
-23.608292819911128
 20
-68.03737970220578
 10
-24.01390985666592
 20
-67.20634344293057
 10
-24.390284587069743
 20
-66.36166095403178
 10
-24.736958690708832
 20
-65.50436082536476
 10
-25.05351001431052
 20
-64.63548701158675
  0
LWPOLYLINE
  5
55
330
1F
100
AcDbEntity
  8
4_ANYTOOL_CUTTHROUGH_OUTSI
  6
ByLayer
100
AcDbPolyline
 90
21
 70
1
 10
26.863961035610487
 20
-56.00000000492878
 10
38.99999999997004
 20
-56.00000000000978
 42
0.4142135623746268
 10
44.99999999999915
 20
-50.000000000006594
 10
28.10075154014686
 20
-1.7164329718984845
 42
-0.1460887458255115
 10
28.10075154014976
 20
1.7164329718791578
 10
44.99999999999858
 20
49.99999999998633
 42
0.4142135623747263
 10
38.99999999997004
 20
55.999999999990024
 10
26.863961030699954
 20
55.99999999999642
 42
-0.8746233832549236
 10
19.77293658626985
 20
61.411190142204134
 42
0.7631041444898516
 10
-19.772936586268145
 20
61.41119014221974
 42
-0.8746233832558069
 10
-26.863961030679036
 20
55.99999999999113
 10
-38.99999580287192
 20
55.99999999998843
 10
-38.99999580287192
 20
55.99999999998832
 42
0.4142137672594505
 10
-44.99999999999352
 20
49.99999999996842
 10
-28.10075154015152
 20
1.7164329718164026
 42
-0.1460887458195556
 10
-28.10075154015152
 20
-1.716432971830784
 10
-44.99999999999912
 20
-49.99999999998778
 42
0.414213767259384
 10
-38.99999580287192
 20
-56.0000000000087
 10
-26.863961035591046
 20
-56.00000000490604
 42
-0.874623383932803
 10
-19.772936586268827
 20
-61.411190142219766
 42
0.7631041444948812
 10
19.772936586282356
 20
-61.411190142213854
 42
-0.8746233839330259
  0
ENDSEC
  0
SECTION
  2
OBJECTS
  0
DICTIONARY
  5
C
330
0
100
AcDbDictionary
281
1
  3
ACAD_GROUP
350
D
  3
ACAD_COLOR
350
20000
  3
ACAD_LAYOUT
350
20001
  3
ACAD_MATERIAL
350
20002
  3
ACAD_MLEADERSTYLE
350
20003
  3
ACAD_MLINESTYLE
350
20004
  3
ACAD_PLOTSETTINGS
350
20005
  3
ACAD_PLOTSTYLENAME
350
20006
  3
ACAD_SCALELIST
350
20008
  3
ACAD_TABLESTYLE
350
20009
  3
ACAD_VISUALSTYLE
350
2000A
  3
EZDXF_META
350
20015
  0
DICTIONARY
  5
D
330
C
100
AcDbDictionary
281
1
  0
PLOTSETTINGS
  5
56
330
None
100
AcDbPlotSettings
  1

  4
A3
  6
1x1
 40
0.0
 41
0.0
 42
0.0
 43
0.0
 44
420.0
 45
297.0
 46
0.0
 47
0.0
 48
0.0
 49
0.0
140
0.0
141
0.0
142
1.0
143
1.0
 70
688
 72
1
 73
0
 74
5
  7

 75
16
 76
0
 77
2
 78
300
147
1.0
148
0.0
149
0.0
  0
DICTIONARY
  5
20000
330
C
100
AcDbDictionary
280
0
281
1
  0
DICTIONARY
  5
20001
330
C
100
AcDbDictionary
280
0
281
1
  3
Model
350
2000B
  3
Layout1
350
2000C
  0
DICTIONARY
  5
20002
330
C
100
AcDbDictionary
280
0
281
1
  3
ByBlock
350
2000D
  3
ByLayer
350
2000E
  3
Global
350
2000F
  0
DICTIONARY
  5
20003
330
C
100
AcDbDictionary
280
0
281
1
  3
Standard
350
20012
  0
DICTIONARY
  5
20004
330
C
100
AcDbDictionary
280
0
281
1
  3
Standard
350
20010
  0
DICTIONARY
  5
20005
330
C
100
AcDbDictionary
280
0
281
1
  0
ACDBDICTIONARYWDFLT
  5
20006
330
C
100
AcDbDictionary
280
0
281
1
  3
Normal
350
20007
100
AcDbDictionaryWithDefault
340
20007
  0
ACDBPLACEHOLDER
  5
20007
330
20006
  0
DICTIONARY
  5
20008
330
C
100
AcDbDictionary
280
0
281
1
  0
DICTIONARY
  5
20009
330
C
100
AcDbDictionary
280
0
281
1
  0
DICTIONARY
  5
2000A
330
C
100
AcDbDictionary
280
0
281
1
  0
LAYOUT
  5
2000B
330
20001
100
AcDbPlotSettings
  1

  4
A3
  6

 40
7.5
 41
20.0
 42
7.5
 43
20.0
 44
420.0
 45
297.0
 46
0.0
 47
0.0
 48
0.0
 49
0.0
140
0.0
141
0.0
142
1.0
143
1.0
 70
1024
 72
1
 73
0
 74
5
  7

 75
16
 76
0
 77
2
 78
300
147
1.0
148
0.0
149
0.0
100
AcDbLayout
  1
Model
 70
1
 71
0
 10
0.0
 20
0.0
 11
420.0
 21
297.0
 12
0.0
 22
0.0
 32
0.0
 14
1e+20
 24
1e+20
 34
1e+20
 15
-1e+20
 25
-1e+20
 35
-1e+20
146
0.0
 13
0.0
 23
0.0
 33
0.0
 16
1.0
 26
0.0
 36
0.0
 17
0.0
 27
1.0
 37
0.0
 76
1
330
1F
  0
LAYOUT
  5
2000C
330
20001
100
AcDbPlotSettings
  1

  4
A3
  6

 40
7.5
 41
20.0
 42
7.5
 43
20.0
 44
420.0
 45
297.0
 46
0.0
 47
0.0
 48
0.0
 49
0.0
140
0.0
141
0.0
142
1.0
143
1.0
 70
0
 72
1
 73
0
 74
5
  7

 75
16
 76
0
 77
2
 78
300
147
1.0
148
0.0
149
0.0
100
AcDbLayout
  1
Layout1
 70
1
 71
1
 10
0.0
 20
0.0
 11
420.0
 21
297.0
 12
0.0
 22
0.0
 32
0.0
 14
1e+20
 24
1e+20
 34
1e+20
 15
-1e+20
 25
-1e+20
 35
-1e+20
146
0.0
 13
0.0
 23
0.0
 33
0.0
 16
1.0
 26
0.0
 36
0.0
 17
0.0
 27
1.0
 37
0.0
 76
1
330
1E
  0
MATERIAL
  5
2000D
102
{ACAD_REACTORS
330
20002
102
}
330
20002
100
AcDbMaterial
  1
ByBlock
  2

 70
0
 40
1.0
 71
1
 41
1.0
 91
-1023410177
 42
1.0
 72
1
  3

 73
1
 74
1
 75
1
 44
0.5
 73
0
 45
1.0
 46
1.0
 77
1
  4

 78
1
 79
1
170
1
 48
1.0
171
1
  6

172
1
173
1
174
1
140
1.0
141
1.0
175
1
  7

176
1
177
1
178
1
143
1.0
179
1
  8

270
1
271
1
272
1
145
1.0
146
1.0
273
1
  9

274
1
275
1
276
1
 42
1.0
 72
1
  3

 73
1
 74
1
 75
1
 94
63
  0
MATERIAL
  5
2000E
102
{ACAD_REACTORS
330
20002
102
}
330
20002
100
AcDbMaterial
  1
ByLayer
  2

 70
0
 40
1.0
 71
1
 41
1.0
 91
-1023410177
 42
1.0
 72
1
  3

 73
1
 74
1
 75
1
 44
0.5
 73
0
 45
1.0
 46
1.0
 77
1
  4

 78
1
 79
1
170
1
 48
1.0
171
1
  6

172
1
173
1
174
1
140
1.0
141
1.0
175
1
  7

176
1
177
1
178
1
143
1.0
179
1
  8

270
1
271
1
272
1
145
1.0
146
1.0
273
1
  9

274
1
275
1
276
1
 42
1.0
 72
1
  3

 73
1
 74
1
 75
1
 94
63
  0
MATERIAL
  5
2000F
102
{ACAD_REACTORS
330
20002
102
}
330
20002
100
AcDbMaterial
  1
Global
  2

 70
0
 40
1.0
 71
1
 41
1.0
 91
-1023410177
 42
1.0
 72
1
  3

 73
1
 74
1
 75
1
 44
0.5
 73
0
 45
1.0
 46
1.0
 77
1
  4

 78
1
 79
1
170
1
 48
1.0
171
1
  6

172
1
173
1
174
1
140
1.0
141
1.0
175
1
  7

176
1
177
1
178
1
143
1.0
179
1
  8

270
1
271
1
272
1
145
1.0
146
1.0
273
1
  9

274
1
275
1
276
1
 42
1.0
 72
1
  3

 73
1
 74
1
 75
1
 94
63
  0
MLINESTYLE
  5
20010
102
{ACAD_REACTORS
330
20004
102
}
330
20004
100
AcDbMlineStyle
  2
Standard
 70
0
  3

 62
256
 51
90.0
 52
90.0
 71
2
 49
0.5
 62
256
  6
BYLAYER
 49
-0.5
 62
256
  6
BYLAYER
  0
MLEADERSTYLE
  5
20012
102
{ACAD_REACTORS
330
20003
102
}
330
20003
100
AcDbMLeaderStyle
179
2
170
2
171
1
172
0
 90
2
 40
0.0
 41
0.0
173
1
 91
-1056964608
 92
-2
290
1
 42
2.0
291
1
 43
8.0
  3
Standard
 44
4.0
300

342
50
174
1
175
1
176
0
178
1
 93
-1056964608
 45
4.0
292
0
297
0
 46
4.0
 94
-1056964608
 47
1.0
 49
1.0
140
1.0
294
1
141
0.0
177
0
142
1.0
295
0
296
0
143
3.75
271
0
272
9
273
9
  0
DICTIONARY
  5
20015
330
C
100
AcDbDictionary
281
1
  3
WRITTEN_BY_EZDXF
350
20016
  0
DICTIONARYVAR
  5
20016
330
20015
100
DictionaryVariables
280
0
  1
1.3.1 @ 2024-07-08T02:28:29.197971+00:00
  0
ENDSEC
  0
EOF
